solid ASCII
  facet normal 9.914449e-01 -1.305262e-01 0.000000e+00
    outer loop
      vertex   -3.144889e+01 1.038823e+01 5.000000e+01
      vertex   -3.144889e+01 1.038823e+01 5.200000e+01
      vertex   -3.150000e+01 1.000000e+01 5.000000e+01
    endloop
  endfacet
  facet normal 9.914449e-01 -1.305262e-01 0.000000e+00
    outer loop
      vertex   -3.150000e+01 1.000000e+01 5.000000e+01
      vertex   -3.144889e+01 1.038823e+01 5.200000e+01
      vertex   -3.150000e+01 1.000000e+01 5.200000e+01
    endloop
  endfacet
  facet normal 9.914449e-01 1.305262e-01 -0.000000e+00
    outer loop
      vertex   -3.150000e+01 1.000000e+01 5.000000e+01
      vertex   -3.150000e+01 1.000000e+01 5.200000e+01
      vertex   -3.144889e+01 9.611772e+00 5.000000e+01
    endloop
  endfacet
  facet normal 9.914449e-01 1.305262e-01 1.159305e-16
    outer loop
      vertex   -3.144889e+01 9.611772e+00 5.000000e+01
      vertex   -3.150000e+01 1.000000e+01 5.200000e+01
      vertex   -3.144889e+01 9.611772e+00 5.200000e+01
    endloop
  endfacet
  facet normal 9.238795e-01 3.826834e-01 3.398912e-16
    outer loop
      vertex   -3.144889e+01 9.611772e+00 5.000000e+01
      vertex   -3.144889e+01 9.611772e+00 5.200000e+01
      vertex   -3.129904e+01 9.250001e+00 5.000000e+01
    endloop
  endfacet
  facet normal 9.238795e-01 3.826834e-01 -0.000000e+00
    outer loop
      vertex   -3.129904e+01 9.250001e+00 5.000000e+01
      vertex   -3.144889e+01 9.611772e+00 5.200000e+01
      vertex   -3.129904e+01 9.250001e+00 5.200000e+01
    endloop
  endfacet
  facet normal 7.933533e-01 6.087614e-01 -0.000000e+00
    outer loop
      vertex   -3.129904e+01 9.250001e+00 5.000000e+01
      vertex   -3.129904e+01 9.250001e+00 5.200000e+01
      vertex   -3.106066e+01 8.939341e+00 5.000000e+01
    endloop
  endfacet
  facet normal 7.933533e-01 6.087614e-01 -0.000000e+00
    outer loop
      vertex   -3.106066e+01 8.939341e+00 5.000000e+01
      vertex   -3.129904e+01 9.250001e+00 5.200000e+01
      vertex   -3.106066e+01 8.939341e+00 5.200000e+01
    endloop
  endfacet
  facet normal 6.087614e-01 7.933533e-01 -0.000000e+00
    outer loop
      vertex   -3.106066e+01 8.939341e+00 5.000000e+01
      vertex   -3.106066e+01 8.939341e+00 5.200000e+01
      vertex   -3.075000e+01 8.700963e+00 5.000000e+01
    endloop
  endfacet
  facet normal 6.087614e-01 7.933533e-01 -0.000000e+00
    outer loop
      vertex   -3.075000e+01 8.700963e+00 5.000000e+01
      vertex   -3.106066e+01 8.939341e+00 5.200000e+01
      vertex   -3.075000e+01 8.700963e+00 5.200000e+01
    endloop
  endfacet
  facet normal 3.826834e-01 9.238795e-01 -0.000000e+00
    outer loop
      vertex   -3.075000e+01 8.700963e+00 5.000000e+01
      vertex   -3.075000e+01 8.700963e+00 5.200000e+01
      vertex   -3.038823e+01 8.551112e+00 5.000000e+01
    endloop
  endfacet
  facet normal 3.826834e-01 9.238795e-01 -0.000000e+00
    outer loop
      vertex   -3.038823e+01 8.551112e+00 5.000000e+01
      vertex   -3.075000e+01 8.700963e+00 5.200000e+01
      vertex   -3.038823e+01 8.551112e+00 5.200000e+01
    endloop
  endfacet
  facet normal 1.305262e-01 9.914449e-01 -0.000000e+00
    outer loop
      vertex   -3.038823e+01 8.551112e+00 5.000000e+01
      vertex   -3.038823e+01 8.551112e+00 5.200000e+01
      vertex   -3.000000e+01 8.500001e+00 5.000000e+01
    endloop
  endfacet
  facet normal 1.305262e-01 9.914449e-01 -0.000000e+00
    outer loop
      vertex   -3.000000e+01 8.500001e+00 5.000000e+01
      vertex   -3.038823e+01 8.551112e+00 5.200000e+01
      vertex   -3.000000e+01 8.500001e+00 5.200000e+01
    endloop
  endfacet
  facet normal -1.305262e-01 9.914449e-01 0.000000e+00
    outer loop
      vertex   -3.000000e+01 8.500001e+00 5.000000e+01
      vertex   -3.000000e+01 8.500001e+00 5.200000e+01
      vertex   -2.961177e+01 8.551112e+00 5.000000e+01
    endloop
  endfacet
  facet normal -1.305262e-01 9.914449e-01 0.000000e+00
    outer loop
      vertex   -2.961177e+01 8.551112e+00 5.000000e+01
      vertex   -3.000000e+01 8.500001e+00 5.200000e+01
      vertex   -2.961177e+01 8.551112e+00 5.200000e+01
    endloop
  endfacet
  facet normal -3.826834e-01 9.238795e-01 0.000000e+00
    outer loop
      vertex   -2.961177e+01 8.551112e+00 5.000000e+01
      vertex   -2.961177e+01 8.551112e+00 5.200000e+01
      vertex   -2.925000e+01 8.700963e+00 5.000000e+01
    endloop
  endfacet
  facet normal -3.826834e-01 9.238795e-01 0.000000e+00
    outer loop
      vertex   -2.925000e+01 8.700963e+00 5.000000e+01
      vertex   -2.961177e+01 8.551112e+00 5.200000e+01
      vertex   -2.925000e+01 8.700963e+00 5.200000e+01
    endloop
  endfacet
  facet normal -6.087614e-01 7.933533e-01 0.000000e+00
    outer loop
      vertex   -2.925000e+01 8.700963e+00 5.000000e+01
      vertex   -2.925000e+01 8.700963e+00 5.200000e+01
      vertex   -2.893934e+01 8.939341e+00 5.000000e+01
    endloop
  endfacet
  facet normal -6.087614e-01 7.933533e-01 0.000000e+00
    outer loop
      vertex   -2.893934e+01 8.939341e+00 5.000000e+01
      vertex   -2.925000e+01 8.700963e+00 5.200000e+01
      vertex   -2.893934e+01 8.939341e+00 5.200000e+01
    endloop
  endfacet
  facet normal -7.933533e-01 6.087614e-01 0.000000e+00
    outer loop
      vertex   -2.893934e+01 8.939341e+00 5.000000e+01
      vertex   -2.893934e+01 8.939341e+00 5.200000e+01
      vertex   -2.870096e+01 9.250001e+00 5.000000e+01
    endloop
  endfacet
  facet normal -7.933533e-01 6.087614e-01 0.000000e+00
    outer loop
      vertex   -2.870096e+01 9.250001e+00 5.000000e+01
      vertex   -2.893934e+01 8.939341e+00 5.200000e+01
      vertex   -2.870096e+01 9.250001e+00 5.200000e+01
    endloop
  endfacet
  facet normal -9.238795e-01 3.826834e-01 0.000000e+00
    outer loop
      vertex   -2.870096e+01 9.250001e+00 5.000000e+01
      vertex   -2.870096e+01 9.250001e+00 5.200000e+01
      vertex   -2.855111e+01 9.611772e+00 5.000000e+01
    endloop
  endfacet
  facet normal -9.238795e-01 3.826834e-01 0.000000e+00
    outer loop
      vertex   -2.855111e+01 9.611772e+00 5.000000e+01
      vertex   -2.870096e+01 9.250001e+00 5.200000e+01
      vertex   -2.855111e+01 9.611772e+00 5.200000e+01
    endloop
  endfacet
  facet normal -9.914449e-01 1.305262e-01 0.000000e+00
    outer loop
      vertex   -2.855111e+01 9.611772e+00 5.000000e+01
      vertex   -2.855111e+01 9.611772e+00 5.200000e+01
      vertex   -2.850000e+01 1.000000e+01 5.000000e+01
    endloop
  endfacet
  facet normal -9.914449e-01 1.305262e-01 0.000000e+00
    outer loop
      vertex   -2.850000e+01 1.000000e+01 5.000000e+01
      vertex   -2.855111e+01 9.611772e+00 5.200000e+01
      vertex   -2.850000e+01 1.000000e+01 5.200000e+01
    endloop
  endfacet
  facet normal -9.914449e-01 -1.305262e-01 0.000000e+00
    outer loop
      vertex   -2.850000e+01 1.000000e+01 5.000000e+01
      vertex   -2.850000e+01 1.000000e+01 5.200000e+01
      vertex   -2.855111e+01 1.038823e+01 5.000000e+01
    endloop
  endfacet
  facet normal -9.914449e-01 -1.305262e-01 1.159305e-16
    outer loop
      vertex   -2.855111e+01 1.038823e+01 5.000000e+01
      vertex   -2.850000e+01 1.000000e+01 5.200000e+01
      vertex   -2.855111e+01 1.038823e+01 5.200000e+01
    endloop
  endfacet
  facet normal -9.238795e-01 -3.826834e-01 3.398912e-16
    outer loop
      vertex   -2.855111e+01 1.038823e+01 5.000000e+01
      vertex   -2.855111e+01 1.038823e+01 5.200000e+01
      vertex   -2.870096e+01 1.075000e+01 5.000000e+01
    endloop
  endfacet
  facet normal -9.238795e-01 -3.826834e-01 0.000000e+00
    outer loop
      vertex   -2.870096e+01 1.075000e+01 5.000000e+01
      vertex   -2.855111e+01 1.038823e+01 5.200000e+01
      vertex   -2.870096e+01 1.075000e+01 5.200000e+01
    endloop
  endfacet
  facet normal -7.933533e-01 -6.087614e-01 0.000000e+00
    outer loop
      vertex   -2.870096e+01 1.075000e+01 5.000000e+01
      vertex   -2.870096e+01 1.075000e+01 5.200000e+01
      vertex   -2.893934e+01 1.106066e+01 5.000000e+01
    endloop
  endfacet
  facet normal -7.933533e-01 -6.087614e-01 0.000000e+00
    outer loop
      vertex   -2.893934e+01 1.106066e+01 5.000000e+01
      vertex   -2.870096e+01 1.075000e+01 5.200000e+01
      vertex   -2.893934e+01 1.106066e+01 5.200000e+01
    endloop
  endfacet
  facet normal -6.087614e-01 -7.933533e-01 0.000000e+00
    outer loop
      vertex   -2.893934e+01 1.106066e+01 5.000000e+01
      vertex   -2.893934e+01 1.106066e+01 5.200000e+01
      vertex   -2.925000e+01 1.129904e+01 5.000000e+01
    endloop
  endfacet
  facet normal -6.087614e-01 -7.933533e-01 7.046393e-16
    outer loop
      vertex   -2.925000e+01 1.129904e+01 5.000000e+01
      vertex   -2.893934e+01 1.106066e+01 5.200000e+01
      vertex   -2.925000e+01 1.129904e+01 5.200000e+01
    endloop
  endfacet
  facet normal -3.826834e-01 -9.238795e-01 8.205699e-16
    outer loop
      vertex   -2.925000e+01 1.129904e+01 5.000000e+01
      vertex   -2.925000e+01 1.129904e+01 5.200000e+01
      vertex   -2.961177e+01 1.144889e+01 5.000000e+01
    endloop
  endfacet
  facet normal -3.826834e-01 -9.238795e-01 8.205699e-16
    outer loop
      vertex   -2.961177e+01 1.144889e+01 5.000000e+01
      vertex   -2.925000e+01 1.129904e+01 5.200000e+01
      vertex   -2.961177e+01 1.144889e+01 5.200000e+01
    endloop
  endfacet
  facet normal -1.305262e-01 -9.914449e-01 8.805799e-16
    outer loop
      vertex   -2.961177e+01 1.144889e+01 5.000000e+01
      vertex   -2.961177e+01 1.144889e+01 5.200000e+01
      vertex   -3.000000e+01 1.150000e+01 5.000000e+01
    endloop
  endfacet
  facet normal -1.305262e-01 -9.914449e-01 0.000000e+00
    outer loop
      vertex   -3.000000e+01 1.150000e+01 5.000000e+01
      vertex   -2.961177e+01 1.144889e+01 5.200000e+01
      vertex   -3.000000e+01 1.150000e+01 5.200000e+01
    endloop
  endfacet
  facet normal 1.305262e-01 -9.914449e-01 0.000000e+00
    outer loop
      vertex   -3.000000e+01 1.150000e+01 5.000000e+01
      vertex   -3.000000e+01 1.150000e+01 5.200000e+01
      vertex   -3.038823e+01 1.144889e+01 5.000000e+01
    endloop
  endfacet
  facet normal 1.305262e-01 -9.914449e-01 0.000000e+00
    outer loop
      vertex   -3.038823e+01 1.144889e+01 5.000000e+01
      vertex   -3.000000e+01 1.150000e+01 5.200000e+01
      vertex   -3.038823e+01 1.144889e+01 5.200000e+01
    endloop
  endfacet
  facet normal 3.826834e-01 -9.238795e-01 0.000000e+00
    outer loop
      vertex   -3.038823e+01 1.144889e+01 5.000000e+01
      vertex   -3.038823e+01 1.144889e+01 5.200000e+01
      vertex   -3.075000e+01 1.129904e+01 5.000000e+01
    endloop
  endfacet
  facet normal 3.826834e-01 -9.238795e-01 -8.205699e-16
    outer loop
      vertex   -3.075000e+01 1.129904e+01 5.000000e+01
      vertex   -3.038823e+01 1.144889e+01 5.200000e+01
      vertex   -3.075000e+01 1.129904e+01 5.200000e+01
    endloop
  endfacet
  facet normal 6.087614e-01 -7.933533e-01 -7.046393e-16
    outer loop
      vertex   -3.075000e+01 1.129904e+01 5.000000e+01
      vertex   -3.075000e+01 1.129904e+01 5.200000e+01
      vertex   -3.106066e+01 1.106066e+01 5.000000e+01
    endloop
  endfacet
  facet normal 6.087614e-01 -7.933533e-01 0.000000e+00
    outer loop
      vertex   -3.106066e+01 1.106066e+01 5.000000e+01
      vertex   -3.075000e+01 1.129904e+01 5.200000e+01
      vertex   -3.106066e+01 1.106066e+01 5.200000e+01
    endloop
  endfacet
  facet normal 7.933533e-01 -6.087614e-01 0.000000e+00
    outer loop
      vertex   -3.106066e+01 1.106066e+01 5.000000e+01
      vertex   -3.106066e+01 1.106066e+01 5.200000e+01
      vertex   -3.129904e+01 1.075000e+01 5.000000e+01
    endloop
  endfacet
  facet normal 7.933533e-01 -6.087614e-01 0.000000e+00
    outer loop
      vertex   -3.129904e+01 1.075000e+01 5.000000e+01
      vertex   -3.106066e+01 1.106066e+01 5.200000e+01
      vertex   -3.129904e+01 1.075000e+01 5.200000e+01
    endloop
  endfacet
  facet normal 9.238795e-01 -3.826834e-01 0.000000e+00
    outer loop
      vertex   -3.129904e+01 1.075000e+01 5.000000e+01
      vertex   -3.129904e+01 1.075000e+01 5.200000e+01
      vertex   -3.144889e+01 1.038823e+01 5.000000e+01
    endloop
  endfacet
  facet normal 9.238795e-01 -3.826834e-01 0.000000e+00
    outer loop
      vertex   -3.144889e+01 1.038823e+01 5.000000e+01
      vertex   -3.129904e+01 1.075000e+01 5.200000e+01
      vertex   -3.144889e+01 1.038823e+01 5.200000e+01
    endloop
  endfacet
  facet normal 9.914449e-01 -1.305262e-01 0.000000e+00
    outer loop
      vertex   2.855111e+01 1.038823e+01 5.000000e+01
      vertex   2.855111e+01 1.038823e+01 5.200000e+01
      vertex   2.850000e+01 1.000000e+01 5.000000e+01
    endloop
  endfacet
  facet normal 9.914449e-01 -1.305262e-01 0.000000e+00
    outer loop
      vertex   2.850000e+01 1.000000e+01 5.000000e+01
      vertex   2.855111e+01 1.038823e+01 5.200000e+01
      vertex   2.850000e+01 1.000000e+01 5.200000e+01
    endloop
  endfacet
  facet normal 9.914449e-01 1.305262e-01 -0.000000e+00
    outer loop
      vertex   2.850000e+01 1.000000e+01 5.000000e+01
      vertex   2.850000e+01 1.000000e+01 5.200000e+01
      vertex   2.855111e+01 9.611772e+00 5.000000e+01
    endloop
  endfacet
  facet normal 9.914449e-01 1.305262e-01 -0.000000e+00
    outer loop
      vertex   2.855111e+01 9.611772e+00 5.000000e+01
      vertex   2.850000e+01 1.000000e+01 5.200000e+01
      vertex   2.855111e+01 9.611772e+00 5.200000e+01
    endloop
  endfacet
  facet normal 9.238795e-01 3.826834e-01 -0.000000e+00
    outer loop
      vertex   2.855111e+01 9.611772e+00 5.000000e+01
      vertex   2.855111e+01 9.611772e+00 5.200000e+01
      vertex   2.870096e+01 9.250001e+00 5.000000e+01
    endloop
  endfacet
  facet normal 9.238795e-01 3.826834e-01 -0.000000e+00
    outer loop
      vertex   2.870096e+01 9.250001e+00 5.000000e+01
      vertex   2.855111e+01 9.611772e+00 5.200000e+01
      vertex   2.870096e+01 9.250001e+00 5.200000e+01
    endloop
  endfacet
  facet normal 7.933533e-01 6.087614e-01 -0.000000e+00
    outer loop
      vertex   2.870096e+01 9.250001e+00 5.000000e+01
      vertex   2.870096e+01 9.250001e+00 5.200000e+01
      vertex   2.893934e+01 8.939341e+00 5.000000e+01
    endloop
  endfacet
  facet normal 7.933533e-01 6.087614e-01 -0.000000e+00
    outer loop
      vertex   2.893934e+01 8.939341e+00 5.000000e+01
      vertex   2.870096e+01 9.250001e+00 5.200000e+01
      vertex   2.893934e+01 8.939341e+00 5.200000e+01
    endloop
  endfacet
  facet normal 6.087614e-01 7.933533e-01 -0.000000e+00
    outer loop
      vertex   2.893934e+01 8.939341e+00 5.000000e+01
      vertex   2.893934e+01 8.939341e+00 5.200000e+01
      vertex   2.925000e+01 8.700963e+00 5.000000e+01
    endloop
  endfacet
  facet normal 6.087614e-01 7.933533e-01 -1.081378e-15
    outer loop
      vertex   2.925000e+01 8.700963e+00 5.000000e+01
      vertex   2.893934e+01 8.939341e+00 5.200000e+01
      vertex   2.925000e+01 8.700963e+00 5.200000e+01
    endloop
  endfacet
  facet normal 3.826834e-01 9.238795e-01 -6.797823e-16
    outer loop
      vertex   2.925000e+01 8.700963e+00 5.000000e+01
      vertex   2.925000e+01 8.700963e+00 5.200000e+01
      vertex   2.961177e+01 8.551112e+00 5.000000e+01
    endloop
  endfacet
  facet normal 3.826834e-01 9.238795e-01 -0.000000e+00
    outer loop
      vertex   2.961177e+01 8.551112e+00 5.000000e+01
      vertex   2.925000e+01 8.700963e+00 5.200000e+01
      vertex   2.961177e+01 8.551112e+00 5.200000e+01
    endloop
  endfacet
  facet normal 1.305262e-01 9.914449e-01 -0.000000e+00
    outer loop
      vertex   2.961177e+01 8.551112e+00 5.000000e+01
      vertex   2.961177e+01 8.551112e+00 5.200000e+01
      vertex   3.000000e+01 8.500001e+00 5.000000e+01
    endloop
  endfacet
  facet normal 1.305262e-01 9.914449e-01 -0.000000e+00
    outer loop
      vertex   3.000000e+01 8.500001e+00 5.000000e+01
      vertex   2.961177e+01 8.551112e+00 5.200000e+01
      vertex   3.000000e+01 8.500001e+00 5.200000e+01
    endloop
  endfacet
  facet normal -1.305262e-01 9.914449e-01 0.000000e+00
    outer loop
      vertex   3.000000e+01 8.500001e+00 5.000000e+01
      vertex   3.000000e+01 8.500001e+00 5.200000e+01
      vertex   3.038823e+01 8.551112e+00 5.000000e+01
    endloop
  endfacet
  facet normal -1.305262e-01 9.914449e-01 2.318611e-16
    outer loop
      vertex   3.038823e+01 8.551112e+00 5.000000e+01
      vertex   3.000000e+01 8.500001e+00 5.200000e+01
      vertex   3.038823e+01 8.551112e+00 5.200000e+01
    endloop
  endfacet
  facet normal -3.826834e-01 9.238795e-01 6.797823e-16
    outer loop
      vertex   3.038823e+01 8.551112e+00 5.000000e+01
      vertex   3.038823e+01 8.551112e+00 5.200000e+01
      vertex   3.075000e+01 8.700963e+00 5.000000e+01
    endloop
  endfacet
  facet normal -3.826834e-01 9.238795e-01 6.797823e-16
    outer loop
      vertex   3.075000e+01 8.700963e+00 5.000000e+01
      vertex   3.038823e+01 8.551112e+00 5.200000e+01
      vertex   3.075000e+01 8.700963e+00 5.200000e+01
    endloop
  endfacet
  facet normal -6.087614e-01 7.933533e-01 1.081378e-15
    outer loop
      vertex   3.075000e+01 8.700963e+00 5.000000e+01
      vertex   3.075000e+01 8.700963e+00 5.200000e+01
      vertex   3.106066e+01 8.939341e+00 5.000000e+01
    endloop
  endfacet
  facet normal -6.087614e-01 7.933533e-01 0.000000e+00
    outer loop
      vertex   3.106066e+01 8.939341e+00 5.000000e+01
      vertex   3.075000e+01 8.700963e+00 5.200000e+01
      vertex   3.106066e+01 8.939341e+00 5.200000e+01
    endloop
  endfacet
  facet normal -7.933533e-01 6.087614e-01 0.000000e+00
    outer loop
      vertex   3.106066e+01 8.939341e+00 5.000000e+01
      vertex   3.106066e+01 8.939341e+00 5.200000e+01
      vertex   3.129904e+01 9.250001e+00 5.000000e+01
    endloop
  endfacet
  facet normal -7.933533e-01 6.087614e-01 0.000000e+00
    outer loop
      vertex   3.129904e+01 9.250001e+00 5.000000e+01
      vertex   3.106066e+01 8.939341e+00 5.200000e+01
      vertex   3.129904e+01 9.250001e+00 5.200000e+01
    endloop
  endfacet
  facet normal -9.238795e-01 3.826834e-01 0.000000e+00
    outer loop
      vertex   3.129904e+01 9.250001e+00 5.000000e+01
      vertex   3.129904e+01 9.250001e+00 5.200000e+01
      vertex   3.144889e+01 9.611772e+00 5.000000e+01
    endloop
  endfacet
  facet normal -9.238795e-01 3.826834e-01 -3.398912e-16
    outer loop
      vertex   3.144889e+01 9.611772e+00 5.000000e+01
      vertex   3.129904e+01 9.250001e+00 5.200000e+01
      vertex   3.144889e+01 9.611772e+00 5.200000e+01
    endloop
  endfacet
  facet normal -9.914449e-01 1.305262e-01 -1.159305e-16
    outer loop
      vertex   3.144889e+01 9.611772e+00 5.000000e+01
      vertex   3.144889e+01 9.611772e+00 5.200000e+01
      vertex   3.150000e+01 1.000000e+01 5.000000e+01
    endloop
  endfacet
  facet normal -9.914449e-01 1.305262e-01 0.000000e+00
    outer loop
      vertex   3.150000e+01 1.000000e+01 5.000000e+01
      vertex   3.144889e+01 9.611772e+00 5.200000e+01
      vertex   3.150000e+01 1.000000e+01 5.200000e+01
    endloop
  endfacet
  facet normal -9.914449e-01 -1.305262e-01 0.000000e+00
    outer loop
      vertex   3.150000e+01 1.000000e+01 5.000000e+01
      vertex   3.150000e+01 1.000000e+01 5.200000e+01
      vertex   3.144889e+01 1.038823e+01 5.000000e+01
    endloop
  endfacet
  facet normal -9.914449e-01 -1.305262e-01 0.000000e+00
    outer loop
      vertex   3.144889e+01 1.038823e+01 5.000000e+01
      vertex   3.150000e+01 1.000000e+01 5.200000e+01
      vertex   3.144889e+01 1.038823e+01 5.200000e+01
    endloop
  endfacet
  facet normal -9.238795e-01 -3.826834e-01 0.000000e+00
    outer loop
      vertex   3.144889e+01 1.038823e+01 5.000000e+01
      vertex   3.144889e+01 1.038823e+01 5.200000e+01
      vertex   3.129904e+01 1.075000e+01 5.000000e+01
    endloop
  endfacet
  facet normal -9.238795e-01 -3.826834e-01 0.000000e+00
    outer loop
      vertex   3.129904e+01 1.075000e+01 5.000000e+01
      vertex   3.144889e+01 1.038823e+01 5.200000e+01
      vertex   3.129904e+01 1.075000e+01 5.200000e+01
    endloop
  endfacet
  facet normal -7.933533e-01 -6.087614e-01 0.000000e+00
    outer loop
      vertex   3.129904e+01 1.075000e+01 5.000000e+01
      vertex   3.129904e+01 1.075000e+01 5.200000e+01
      vertex   3.106066e+01 1.106066e+01 5.000000e+01
    endloop
  endfacet
  facet normal -7.933533e-01 -6.087614e-01 5.406888e-16
    outer loop
      vertex   3.106066e+01 1.106066e+01 5.000000e+01
      vertex   3.129904e+01 1.075000e+01 5.200000e+01
      vertex   3.106066e+01 1.106066e+01 5.200000e+01
    endloop
  endfacet
  facet normal -6.087614e-01 -7.933533e-01 7.046393e-16
    outer loop
      vertex   3.106066e+01 1.106066e+01 5.000000e+01
      vertex   3.106066e+01 1.106066e+01 5.200000e+01
      vertex   3.075000e+01 1.129904e+01 5.000000e+01
    endloop
  endfacet
  facet normal -6.087614e-01 -7.933533e-01 -1.081378e-15
    outer loop
      vertex   3.075000e+01 1.129904e+01 5.000000e+01
      vertex   3.106066e+01 1.106066e+01 5.200000e+01
      vertex   3.075000e+01 1.129904e+01 5.200000e+01
    endloop
  endfacet
  facet normal -3.826834e-01 -9.238795e-01 -6.797823e-16
    outer loop
      vertex   3.075000e+01 1.129904e+01 5.000000e+01
      vertex   3.075000e+01 1.129904e+01 5.200000e+01
      vertex   3.038823e+01 1.144889e+01 5.000000e+01
    endloop
  endfacet
  facet normal -3.826834e-01 -9.238795e-01 -6.797823e-16
    outer loop
      vertex   3.038823e+01 1.144889e+01 5.000000e+01
      vertex   3.075000e+01 1.129904e+01 5.200000e+01
      vertex   3.038823e+01 1.144889e+01 5.200000e+01
    endloop
  endfacet
  facet normal -1.305262e-01 -9.914449e-01 -2.318611e-16
    outer loop
      vertex   3.038823e+01 1.144889e+01 5.000000e+01
      vertex   3.038823e+01 1.144889e+01 5.200000e+01
      vertex   3.000000e+01 1.150000e+01 5.000000e+01
    endloop
  endfacet
  facet normal -1.305262e-01 -9.914449e-01 0.000000e+00
    outer loop
      vertex   3.000000e+01 1.150000e+01 5.000000e+01
      vertex   3.038823e+01 1.144889e+01 5.200000e+01
      vertex   3.000000e+01 1.150000e+01 5.200000e+01
    endloop
  endfacet
  facet normal 1.305262e-01 -9.914449e-01 0.000000e+00
    outer loop
      vertex   3.000000e+01 1.150000e+01 5.000000e+01
      vertex   3.000000e+01 1.150000e+01 5.200000e+01
      vertex   2.961177e+01 1.144889e+01 5.000000e+01
    endloop
  endfacet
  facet normal 1.305262e-01 -9.914449e-01 0.000000e+00
    outer loop
      vertex   2.961177e+01 1.144889e+01 5.000000e+01
      vertex   3.000000e+01 1.150000e+01 5.200000e+01
      vertex   2.961177e+01 1.144889e+01 5.200000e+01
    endloop
  endfacet
  facet normal 3.826834e-01 -9.238795e-01 0.000000e+00
    outer loop
      vertex   2.961177e+01 1.144889e+01 5.000000e+01
      vertex   2.961177e+01 1.144889e+01 5.200000e+01
      vertex   2.925000e+01 1.129904e+01 5.000000e+01
    endloop
  endfacet
  facet normal 3.826834e-01 -9.238795e-01 6.797823e-16
    outer loop
      vertex   2.925000e+01 1.129904e+01 5.000000e+01
      vertex   2.961177e+01 1.144889e+01 5.200000e+01
      vertex   2.925000e+01 1.129904e+01 5.200000e+01
    endloop
  endfacet
  facet normal 6.087614e-01 -7.933533e-01 1.081378e-15
    outer loop
      vertex   2.925000e+01 1.129904e+01 5.000000e+01
      vertex   2.925000e+01 1.129904e+01 5.200000e+01
      vertex   2.893934e+01 1.106066e+01 5.000000e+01
    endloop
  endfacet
  facet normal 6.087614e-01 -7.933533e-01 0.000000e+00
    outer loop
      vertex   2.893934e+01 1.106066e+01 5.000000e+01
      vertex   2.925000e+01 1.129904e+01 5.200000e+01
      vertex   2.893934e+01 1.106066e+01 5.200000e+01
    endloop
  endfacet
  facet normal 7.933533e-01 -6.087614e-01 0.000000e+00
    outer loop
      vertex   2.893934e+01 1.106066e+01 5.000000e+01
      vertex   2.893934e+01 1.106066e+01 5.200000e+01
      vertex   2.870096e+01 1.075000e+01 5.000000e+01
    endloop
  endfacet
  facet normal 7.933533e-01 -6.087614e-01 0.000000e+00
    outer loop
      vertex   2.870096e+01 1.075000e+01 5.000000e+01
      vertex   2.893934e+01 1.106066e+01 5.200000e+01
      vertex   2.870096e+01 1.075000e+01 5.200000e+01
    endloop
  endfacet
  facet normal 9.238795e-01 -3.826834e-01 0.000000e+00
    outer loop
      vertex   2.870096e+01 1.075000e+01 5.000000e+01
      vertex   2.870096e+01 1.075000e+01 5.200000e+01
      vertex   2.855111e+01 1.038823e+01 5.000000e+01
    endloop
  endfacet
  facet normal 9.238795e-01 -3.826834e-01 0.000000e+00
    outer loop
      vertex   2.855111e+01 1.038823e+01 5.000000e+01
      vertex   2.870096e+01 1.075000e+01 5.200000e+01
      vertex   2.855111e+01 1.038823e+01 5.200000e+01
    endloop
  endfacet
  facet normal 0.000000e+00 0.000000e+00 -1.000000e+00
    outer loop
      vertex   -3.144889e+01 1.038823e+01 5.000000e+01
      vertex   -3.150000e+01 1.000000e+01 5.000000e+01
      vertex   -3.550000e+01 5.000000e+00 5.000000e+01
    endloop
  endfacet
  facet normal 0.000000e+00 0.000000e+00 -1.000000e+00
    outer loop
      vertex   -3.550000e+01 5.000000e+00 5.000000e+01
      vertex   -3.150000e+01 1.000000e+01 5.000000e+01
      vertex   -3.144889e+01 9.611772e+00 5.000000e+01
    endloop
  endfacet
  facet normal 0.000000e+00 0.000000e+00 -1.000000e+00
    outer loop
      vertex   -3.550000e+01 5.000000e+00 5.000000e+01
      vertex   -3.144889e+01 9.611772e+00 5.000000e+01
      vertex   -3.129904e+01 9.250001e+00 5.000000e+01
    endloop
  endfacet
  facet normal 0.000000e+00 -0.000000e+00 -1.000000e+00
    outer loop
      vertex   -3.129904e+01 9.250001e+00 5.000000e+01
      vertex   -3.106066e+01 8.939341e+00 5.000000e+01
      vertex   -3.550000e+01 5.000000e+00 5.000000e+01
    endloop
  endfacet
  facet normal 0.000000e+00 0.000000e+00 -1.000000e+00
    outer loop
      vertex   -3.550000e+01 5.000000e+00 5.000000e+01
      vertex   -3.106066e+01 8.939341e+00 5.000000e+01
      vertex   -3.075000e+01 8.700963e+00 5.000000e+01
    endloop
  endfacet
  facet normal 0.000000e+00 0.000000e+00 -1.000000e+00
    outer loop
      vertex   -3.550000e+01 5.000000e+00 5.000000e+01
      vertex   -3.075000e+01 8.700963e+00 5.000000e+01
      vertex   -3.038823e+01 8.551112e+00 5.000000e+01
    endloop
  endfacet
  facet normal 0.000000e+00 -0.000000e+00 -1.000000e+00
    outer loop
      vertex   -3.038823e+01 8.551112e+00 5.000000e+01
      vertex   -3.000000e+01 8.500001e+00 5.000000e+01
      vertex   -3.550000e+01 5.000000e+00 5.000000e+01
    endloop
  endfacet
  facet normal 0.000000e+00 0.000000e+00 -1.000000e+00
    outer loop
      vertex   -3.550000e+01 5.000000e+00 5.000000e+01
      vertex   -3.000000e+01 8.500001e+00 5.000000e+01
      vertex   -2.961177e+01 8.551112e+00 5.000000e+01
    endloop
  endfacet
  facet normal 0.000000e+00 0.000000e+00 -1.000000e+00
    outer loop
      vertex   -3.550000e+01 5.000000e+00 5.000000e+01
      vertex   -2.961177e+01 8.551112e+00 5.000000e+01
      vertex   -2.925000e+01 8.700963e+00 5.000000e+01
    endloop
  endfacet
  facet normal 0.000000e+00 -0.000000e+00 -1.000000e+00
    outer loop
      vertex   -2.893934e+01 8.939341e+00 5.000000e+01
      vertex   2.893934e+01 8.939341e+00 5.000000e+01
      vertex   -2.925000e+01 8.700963e+00 5.000000e+01
    endloop
  endfacet
  facet normal 0.000000e+00 0.000000e+00 -1.000000e+00
    outer loop
      vertex   -2.925000e+01 8.700963e+00 5.000000e+01
      vertex   2.893934e+01 8.939341e+00 5.000000e+01
      vertex   2.925000e+01 8.700963e+00 5.000000e+01
    endloop
  endfacet
  facet normal 0.000000e+00 -0.000000e+00 -1.000000e+00
    outer loop
      vertex   -2.925000e+01 8.700963e+00 5.000000e+01
      vertex   2.925000e+01 8.700963e+00 5.000000e+01
      vertex   -3.550000e+01 5.000000e+00 5.000000e+01
    endloop
  endfacet
  facet normal 0.000000e+00 0.000000e+00 -1.000000e+00
    outer loop
      vertex   -3.550000e+01 5.000000e+00 5.000000e+01
      vertex   2.925000e+01 8.700963e+00 5.000000e+01
      vertex   3.550000e+01 5.000000e+00 5.000000e+01
    endloop
  endfacet
  facet normal 0.000000e+00 0.000000e+00 -1.000000e+00
    outer loop
      vertex   3.550000e+01 5.000000e+00 5.000000e+01
      vertex   2.925000e+01 8.700963e+00 5.000000e+01
      vertex   2.961177e+01 8.551112e+00 5.000000e+01
    endloop
  endfacet
  facet normal 0.000000e+00 0.000000e+00 -1.000000e+00
    outer loop
      vertex   3.550000e+01 5.000000e+00 5.000000e+01
      vertex   2.961177e+01 8.551112e+00 5.000000e+01
      vertex   3.000000e+01 8.500001e+00 5.000000e+01
    endloop
  endfacet
  facet normal -0.000000e+00 0.000000e+00 -1.000000e+00
    outer loop
      vertex   2.893934e+01 8.939341e+00 5.000000e+01
      vertex   -2.893934e+01 8.939341e+00 5.000000e+01
      vertex   2.870096e+01 9.250001e+00 5.000000e+01
    endloop
  endfacet
  facet normal 0.000000e+00 0.000000e+00 -1.000000e+00
    outer loop
      vertex   2.870096e+01 9.250001e+00 5.000000e+01
      vertex   -2.893934e+01 8.939341e+00 5.000000e+01
      vertex   -2.870096e+01 9.250001e+00 5.000000e+01
    endloop
  endfacet
  facet normal -0.000000e+00 0.000000e+00 -1.000000e+00
    outer loop
      vertex   2.870096e+01 9.250001e+00 5.000000e+01
      vertex   -2.870096e+01 9.250001e+00 5.000000e+01
      vertex   2.855111e+01 9.611772e+00 5.000000e+01
    endloop
  endfacet
  facet normal -0.000000e+00 0.000000e+00 -1.000000e+00
    outer loop
      vertex   2.855111e+01 9.611772e+00 5.000000e+01
      vertex   -2.870096e+01 9.250001e+00 5.000000e+01
      vertex   -2.855111e+01 9.611772e+00 5.000000e+01
    endloop
  endfacet
  facet normal 0.000000e+00 0.000000e+00 -1.000000e+00
    outer loop
      vertex   2.855111e+01 9.611772e+00 5.000000e+01
      vertex   -2.855111e+01 9.611772e+00 5.000000e+01
      vertex   2.850000e+01 1.000000e+01 5.000000e+01
    endloop
  endfacet
  facet normal -0.000000e+00 0.000000e+00 -1.000000e+00
    outer loop
      vertex   2.850000e+01 1.000000e+01 5.000000e+01
      vertex   -2.855111e+01 9.611772e+00 5.000000e+01
      vertex   -2.850000e+01 1.000000e+01 5.000000e+01
    endloop
  endfacet
  facet normal 0.000000e+00 0.000000e+00 -1.000000e+00
    outer loop
      vertex   2.850000e+01 1.000000e+01 5.000000e+01
      vertex   -2.850000e+01 1.000000e+01 5.000000e+01
      vertex   2.855111e+01 1.038823e+01 5.000000e+01
    endloop
  endfacet
  facet normal -0.000000e+00 0.000000e+00 -1.000000e+00
    outer loop
      vertex   2.855111e+01 1.038823e+01 5.000000e+01
      vertex   -2.850000e+01 1.000000e+01 5.000000e+01
      vertex   -2.855111e+01 1.038823e+01 5.000000e+01
    endloop
  endfacet
  facet normal 0.000000e+00 0.000000e+00 -1.000000e+00
    outer loop
      vertex   2.855111e+01 1.038823e+01 5.000000e+01
      vertex   -2.855111e+01 1.038823e+01 5.000000e+01
      vertex   2.870096e+01 1.075000e+01 5.000000e+01
    endloop
  endfacet
  facet normal -0.000000e+00 0.000000e+00 -1.000000e+00
    outer loop
      vertex   2.870096e+01 1.075000e+01 5.000000e+01
      vertex   -2.855111e+01 1.038823e+01 5.000000e+01
      vertex   -2.870096e+01 1.075000e+01 5.000000e+01
    endloop
  endfacet
  facet normal 0.000000e+00 0.000000e+00 -1.000000e+00
    outer loop
      vertex   2.870096e+01 1.075000e+01 5.000000e+01
      vertex   -2.870096e+01 1.075000e+01 5.000000e+01
      vertex   2.893934e+01 1.106066e+01 5.000000e+01
    endloop
  endfacet
  facet normal -0.000000e+00 0.000000e+00 -1.000000e+00
    outer loop
      vertex   2.893934e+01 1.106066e+01 5.000000e+01
      vertex   -2.870096e+01 1.075000e+01 5.000000e+01
      vertex   -2.893934e+01 1.106066e+01 5.000000e+01
    endloop
  endfacet
  facet normal 0.000000e+00 0.000000e+00 -1.000000e+00
    outer loop
      vertex   2.893934e+01 1.106066e+01 5.000000e+01
      vertex   -2.893934e+01 1.106066e+01 5.000000e+01
      vertex   2.925000e+01 1.129904e+01 5.000000e+01
    endloop
  endfacet
  facet normal -0.000000e+00 0.000000e+00 -1.000000e+00
    outer loop
      vertex   2.925000e+01 1.129904e+01 5.000000e+01
      vertex   -2.893934e+01 1.106066e+01 5.000000e+01
      vertex   -2.925000e+01 1.129904e+01 5.000000e+01
    endloop
  endfacet
  facet normal 0.000000e+00 0.000000e+00 -1.000000e+00
    outer loop
      vertex   2.925000e+01 1.129904e+01 5.000000e+01
      vertex   -2.925000e+01 1.129904e+01 5.000000e+01
      vertex   3.550000e+01 5.500000e+01 5.000000e+01
    endloop
  endfacet
  facet normal -0.000000e+00 0.000000e+00 -1.000000e+00
    outer loop
      vertex   3.550000e+01 5.500000e+01 5.000000e+01
      vertex   -2.925000e+01 1.129904e+01 5.000000e+01
      vertex   -3.550000e+01 5.500000e+01 5.000000e+01
    endloop
  endfacet
  facet normal 0.000000e+00 0.000000e+00 -1.000000e+00
    outer loop
      vertex   -3.550000e+01 5.500000e+01 5.000000e+01
      vertex   -2.925000e+01 1.129904e+01 5.000000e+01
      vertex   -2.961177e+01 1.144889e+01 5.000000e+01
    endloop
  endfacet
  facet normal 0.000000e+00 0.000000e+00 -1.000000e+00
    outer loop
      vertex   -3.550000e+01 5.500000e+01 5.000000e+01
      vertex   -2.961177e+01 1.144889e+01 5.000000e+01
      vertex   -3.000000e+01 1.150000e+01 5.000000e+01
    endloop
  endfacet
  facet normal -0.000000e+00 0.000000e+00 -1.000000e+00
    outer loop
      vertex   -3.000000e+01 1.150000e+01 5.000000e+01
      vertex   -3.038823e+01 1.144889e+01 5.000000e+01
      vertex   -3.550000e+01 5.500000e+01 5.000000e+01
    endloop
  endfacet
  facet normal 0.000000e+00 0.000000e+00 -1.000000e+00
    outer loop
      vertex   -3.550000e+01 5.500000e+01 5.000000e+01
      vertex   -3.038823e+01 1.144889e+01 5.000000e+01
      vertex   -3.075000e+01 1.129904e+01 5.000000e+01
    endloop
  endfacet
  facet normal 0.000000e+00 0.000000e+00 -1.000000e+00
    outer loop
      vertex   -3.550000e+01 5.500000e+01 5.000000e+01
      vertex   -3.075000e+01 1.129904e+01 5.000000e+01
      vertex   -3.106066e+01 1.106066e+01 5.000000e+01
    endloop
  endfacet
  facet normal -0.000000e+00 0.000000e+00 -1.000000e+00
    outer loop
      vertex   -3.106066e+01 1.106066e+01 5.000000e+01
      vertex   -3.129904e+01 1.075000e+01 5.000000e+01
      vertex   -3.550000e+01 5.500000e+01 5.000000e+01
    endloop
  endfacet
  facet normal 0.000000e+00 0.000000e+00 -1.000000e+00
    outer loop
      vertex   -3.550000e+01 5.500000e+01 5.000000e+01
      vertex   -3.129904e+01 1.075000e+01 5.000000e+01
      vertex   -3.550000e+01 5.000000e+00 5.000000e+01
    endloop
  endfacet
  facet normal 0.000000e+00 0.000000e+00 -1.000000e+00
    outer loop
      vertex   -3.550000e+01 5.000000e+00 5.000000e+01
      vertex   -3.129904e+01 1.075000e+01 5.000000e+01
      vertex   -3.144889e+01 1.038823e+01 5.000000e+01
    endloop
  endfacet
  facet normal 0.000000e+00 0.000000e+00 -1.000000e+00
    outer loop
      vertex   3.000000e+01 8.500001e+00 5.000000e+01
      vertex   3.038823e+01 8.551112e+00 5.000000e+01
      vertex   3.550000e+01 5.000000e+00 5.000000e+01
    endloop
  endfacet
  facet normal 0.000000e+00 0.000000e+00 -1.000000e+00
    outer loop
      vertex   3.550000e+01 5.000000e+00 5.000000e+01
      vertex   3.038823e+01 8.551112e+00 5.000000e+01
      vertex   3.075000e+01 8.700963e+00 5.000000e+01
    endloop
  endfacet
  facet normal 0.000000e+00 0.000000e+00 -1.000000e+00
    outer loop
      vertex   3.550000e+01 5.000000e+00 5.000000e+01
      vertex   3.075000e+01 8.700963e+00 5.000000e+01
      vertex   3.106066e+01 8.939341e+00 5.000000e+01
    endloop
  endfacet
  facet normal 0.000000e+00 0.000000e+00 -1.000000e+00
    outer loop
      vertex   3.106066e+01 8.939341e+00 5.000000e+01
      vertex   3.129904e+01 9.250001e+00 5.000000e+01
      vertex   3.550000e+01 5.000000e+00 5.000000e+01
    endloop
  endfacet
  facet normal 0.000000e+00 0.000000e+00 -1.000000e+00
    outer loop
      vertex   3.550000e+01 5.000000e+00 5.000000e+01
      vertex   3.129904e+01 9.250001e+00 5.000000e+01
      vertex   3.144889e+01 9.611772e+00 5.000000e+01
    endloop
  endfacet
  facet normal 0.000000e+00 0.000000e+00 -1.000000e+00
    outer loop
      vertex   3.550000e+01 5.000000e+00 5.000000e+01
      vertex   3.144889e+01 9.611772e+00 5.000000e+01
      vertex   3.150000e+01 1.000000e+01 5.000000e+01
    endloop
  endfacet
  facet normal 0.000000e+00 0.000000e+00 -1.000000e+00
    outer loop
      vertex   3.150000e+01 1.000000e+01 5.000000e+01
      vertex   3.144889e+01 1.038823e+01 5.000000e+01
      vertex   3.550000e+01 5.000000e+00 5.000000e+01
    endloop
  endfacet
  facet normal 0.000000e+00 0.000000e+00 -1.000000e+00
    outer loop
      vertex   3.550000e+01 5.000000e+00 5.000000e+01
      vertex   3.144889e+01 1.038823e+01 5.000000e+01
      vertex   3.129904e+01 1.075000e+01 5.000000e+01
    endloop
  endfacet
  facet normal 0.000000e+00 0.000000e+00 -1.000000e+00
    outer loop
      vertex   3.550000e+01 5.000000e+00 5.000000e+01
      vertex   3.129904e+01 1.075000e+01 5.000000e+01
      vertex   3.550000e+01 5.500000e+01 5.000000e+01
    endloop
  endfacet
  facet normal 0.000000e+00 0.000000e+00 -1.000000e+00
    outer loop
      vertex   3.550000e+01 5.500000e+01 5.000000e+01
      vertex   3.129904e+01 1.075000e+01 5.000000e+01
      vertex   3.106066e+01 1.106066e+01 5.000000e+01
    endloop
  endfacet
  facet normal 0.000000e+00 0.000000e+00 -1.000000e+00
    outer loop
      vertex   3.550000e+01 5.500000e+01 5.000000e+01
      vertex   3.106066e+01 1.106066e+01 5.000000e+01
      vertex   3.075000e+01 1.129904e+01 5.000000e+01
    endloop
  endfacet
  facet normal 0.000000e+00 0.000000e+00 -1.000000e+00
    outer loop
      vertex   3.075000e+01 1.129904e+01 5.000000e+01
      vertex   3.038823e+01 1.144889e+01 5.000000e+01
      vertex   3.550000e+01 5.500000e+01 5.000000e+01
    endloop
  endfacet
  facet normal 0.000000e+00 0.000000e+00 -1.000000e+00
    outer loop
      vertex   3.550000e+01 5.500000e+01 5.000000e+01
      vertex   3.038823e+01 1.144889e+01 5.000000e+01
      vertex   3.000000e+01 1.150000e+01 5.000000e+01
    endloop
  endfacet
  facet normal 0.000000e+00 0.000000e+00 -1.000000e+00
    outer loop
      vertex   3.550000e+01 5.500000e+01 5.000000e+01
      vertex   3.000000e+01 1.150000e+01 5.000000e+01
      vertex   2.961177e+01 1.144889e+01 5.000000e+01
    endloop
  endfacet
  facet normal -0.000000e+00 0.000000e+00 -1.000000e+00
    outer loop
      vertex   2.961177e+01 1.144889e+01 5.000000e+01
      vertex   2.925000e+01 1.129904e+01 5.000000e+01
      vertex   3.550000e+01 5.500000e+01 5.000000e+01
    endloop
  endfacet
  facet normal 0.000000e+00 0.000000e+00 1.000000e+00
    outer loop
      vertex   -3.144889e+01 9.611772e+00 5.200000e+01
      vertex   -3.150000e+01 1.000000e+01 5.200000e+01
      vertex   -3.550000e+01 5.000000e+00 5.200000e+01
    endloop
  endfacet
  facet normal 0.000000e+00 0.000000e+00 1.000000e+00
    outer loop
      vertex   -3.550000e+01 5.000000e+00 5.200000e+01
      vertex   -3.150000e+01 1.000000e+01 5.200000e+01
      vertex   -3.144889e+01 1.038823e+01 5.200000e+01
    endloop
  endfacet
  facet normal 0.000000e+00 0.000000e+00 1.000000e+00
    outer loop
      vertex   -3.550000e+01 5.000000e+00 5.200000e+01
      vertex   -3.144889e+01 1.038823e+01 5.200000e+01
      vertex   -3.129904e+01 1.075000e+01 5.200000e+01
    endloop
  endfacet
  facet normal 0.000000e+00 0.000000e+00 1.000000e+00
    outer loop
      vertex   -3.550000e+01 5.000000e+00 5.200000e+01
      vertex   -3.129904e+01 1.075000e+01 5.200000e+01
      vertex   -3.550000e+01 5.500000e+01 5.200000e+01
    endloop
  endfacet
  facet normal 0.000000e+00 0.000000e+00 1.000000e+00
    outer loop
      vertex   -3.550000e+01 5.500000e+01 5.200000e+01
      vertex   -3.129904e+01 1.075000e+01 5.200000e+01
      vertex   -3.106066e+01 1.106066e+01 5.200000e+01
    endloop
  endfacet
  facet normal 0.000000e+00 0.000000e+00 1.000000e+00
    outer loop
      vertex   -3.550000e+01 5.500000e+01 5.200000e+01
      vertex   -3.106066e+01 1.106066e+01 5.200000e+01
      vertex   -3.075000e+01 1.129904e+01 5.200000e+01
    endloop
  endfacet
  facet normal 0.000000e+00 -0.000000e+00 1.000000e+00
    outer loop
      vertex   -3.075000e+01 1.129904e+01 5.200000e+01
      vertex   -3.038823e+01 1.144889e+01 5.200000e+01
      vertex   -3.550000e+01 5.500000e+01 5.200000e+01
    endloop
  endfacet
  facet normal 0.000000e+00 0.000000e+00 1.000000e+00
    outer loop
      vertex   -3.550000e+01 5.500000e+01 5.200000e+01
      vertex   -3.038823e+01 1.144889e+01 5.200000e+01
      vertex   -3.000000e+01 1.150000e+01 5.200000e+01
    endloop
  endfacet
  facet normal 0.000000e+00 0.000000e+00 1.000000e+00
    outer loop
      vertex   -3.550000e+01 5.500000e+01 5.200000e+01
      vertex   -3.000000e+01 1.150000e+01 5.200000e+01
      vertex   -2.961177e+01 1.144889e+01 5.200000e+01
    endloop
  endfacet
  facet normal -0.000000e+00 -0.000000e+00 1.000000e+00
    outer loop
      vertex   -2.961177e+01 1.144889e+01 5.200000e+01
      vertex   -2.925000e+01 1.129904e+01 5.200000e+01
      vertex   -3.550000e+01 5.500000e+01 5.200000e+01
    endloop
  endfacet
  facet normal 0.000000e+00 0.000000e+00 1.000000e+00
    outer loop
      vertex   -3.550000e+01 5.500000e+01 5.200000e+01
      vertex   -2.925000e+01 1.129904e+01 5.200000e+01
      vertex   2.925000e+01 1.129904e+01 5.200000e+01
    endloop
  endfacet
  facet normal -0.000000e+00 0.000000e+00 1.000000e+00
    outer loop
      vertex   -3.550000e+01 5.500000e+01 5.200000e+01
      vertex   2.925000e+01 1.129904e+01 5.200000e+01
      vertex   3.550000e+01 5.500000e+01 5.200000e+01
    endloop
  endfacet
  facet normal 0.000000e+00 0.000000e+00 1.000000e+00
    outer loop
      vertex   3.550000e+01 5.500000e+01 5.200000e+01
      vertex   2.925000e+01 1.129904e+01 5.200000e+01
      vertex   2.961177e+01 1.144889e+01 5.200000e+01
    endloop
  endfacet
  facet normal 0.000000e+00 0.000000e+00 1.000000e+00
    outer loop
      vertex   3.550000e+01 5.500000e+01 5.200000e+01
      vertex   2.961177e+01 1.144889e+01 5.200000e+01
      vertex   3.000000e+01 1.150000e+01 5.200000e+01
    endloop
  endfacet
  facet normal 0.000000e+00 0.000000e+00 1.000000e+00
    outer loop
      vertex   2.925000e+01 1.129904e+01 5.200000e+01
      vertex   -2.925000e+01 1.129904e+01 5.200000e+01
      vertex   2.893934e+01 1.106066e+01 5.200000e+01
    endloop
  endfacet
  facet normal 0.000000e+00 0.000000e+00 1.000000e+00
    outer loop
      vertex   2.893934e+01 1.106066e+01 5.200000e+01
      vertex   -2.925000e+01 1.129904e+01 5.200000e+01
      vertex   -2.893934e+01 1.106066e+01 5.200000e+01
    endloop
  endfacet
  facet normal 0.000000e+00 0.000000e+00 1.000000e+00
    outer loop
      vertex   2.893934e+01 1.106066e+01 5.200000e+01
      vertex   -2.893934e+01 1.106066e+01 5.200000e+01
      vertex   2.870096e+01 1.075000e+01 5.200000e+01
    endloop
  endfacet
  facet normal 0.000000e+00 0.000000e+00 1.000000e+00
    outer loop
      vertex   2.870096e+01 1.075000e+01 5.200000e+01
      vertex   -2.893934e+01 1.106066e+01 5.200000e+01
      vertex   -2.870096e+01 1.075000e+01 5.200000e+01
    endloop
  endfacet
  facet normal 0.000000e+00 0.000000e+00 1.000000e+00
    outer loop
      vertex   2.870096e+01 1.075000e+01 5.200000e+01
      vertex   -2.870096e+01 1.075000e+01 5.200000e+01
      vertex   2.855111e+01 1.038823e+01 5.200000e+01
    endloop
  endfacet
  facet normal 0.000000e+00 0.000000e+00 1.000000e+00
    outer loop
      vertex   2.855111e+01 1.038823e+01 5.200000e+01
      vertex   -2.870096e+01 1.075000e+01 5.200000e+01
      vertex   -2.855111e+01 1.038823e+01 5.200000e+01
    endloop
  endfacet
  facet normal 0.000000e+00 0.000000e+00 1.000000e+00
    outer loop
      vertex   2.855111e+01 1.038823e+01 5.200000e+01
      vertex   -2.855111e+01 1.038823e+01 5.200000e+01
      vertex   2.850000e+01 1.000000e+01 5.200000e+01
    endloop
  endfacet
  facet normal 0.000000e+00 0.000000e+00 1.000000e+00
    outer loop
      vertex   2.850000e+01 1.000000e+01 5.200000e+01
      vertex   -2.855111e+01 1.038823e+01 5.200000e+01
      vertex   -2.850000e+01 1.000000e+01 5.200000e+01
    endloop
  endfacet
  facet normal 0.000000e+00 0.000000e+00 1.000000e+00
    outer loop
      vertex   2.850000e+01 1.000000e+01 5.200000e+01
      vertex   -2.850000e+01 1.000000e+01 5.200000e+01
      vertex   2.855111e+01 9.611772e+00 5.200000e+01
    endloop
  endfacet
  facet normal 0.000000e+00 0.000000e+00 1.000000e+00
    outer loop
      vertex   2.855111e+01 9.611772e+00 5.200000e+01
      vertex   -2.850000e+01 1.000000e+01 5.200000e+01
      vertex   -2.855111e+01 9.611772e+00 5.200000e+01
    endloop
  endfacet
  facet normal 0.000000e+00 0.000000e+00 1.000000e+00
    outer loop
      vertex   2.855111e+01 9.611772e+00 5.200000e+01
      vertex   -2.855111e+01 9.611772e+00 5.200000e+01
      vertex   2.870096e+01 9.250001e+00 5.200000e+01
    endloop
  endfacet
  facet normal 0.000000e+00 0.000000e+00 1.000000e+00
    outer loop
      vertex   2.870096e+01 9.250001e+00 5.200000e+01
      vertex   -2.855111e+01 9.611772e+00 5.200000e+01
      vertex   -2.870096e+01 9.250001e+00 5.200000e+01
    endloop
  endfacet
  facet normal 0.000000e+00 0.000000e+00 1.000000e+00
    outer loop
      vertex   2.870096e+01 9.250001e+00 5.200000e+01
      vertex   -2.870096e+01 9.250001e+00 5.200000e+01
      vertex   2.893934e+01 8.939341e+00 5.200000e+01
    endloop
  endfacet
  facet normal 0.000000e+00 0.000000e+00 1.000000e+00
    outer loop
      vertex   2.893934e+01 8.939341e+00 5.200000e+01
      vertex   -2.870096e+01 9.250001e+00 5.200000e+01
      vertex   -2.893934e+01 8.939341e+00 5.200000e+01
    endloop
  endfacet
  facet normal 0.000000e+00 0.000000e+00 1.000000e+00
    outer loop
      vertex   2.893934e+01 8.939341e+00 5.200000e+01
      vertex   -2.893934e+01 8.939341e+00 5.200000e+01
      vertex   2.925000e+01 8.700963e+00 5.200000e+01
    endloop
  endfacet
  facet normal 0.000000e+00 0.000000e+00 1.000000e+00
    outer loop
      vertex   2.925000e+01 8.700963e+00 5.200000e+01
      vertex   -2.893934e+01 8.939341e+00 5.200000e+01
      vertex   -2.925000e+01 8.700963e+00 5.200000e+01
    endloop
  endfacet
  facet normal 0.000000e+00 0.000000e+00 1.000000e+00
    outer loop
      vertex   2.925000e+01 8.700963e+00 5.200000e+01
      vertex   -2.925000e+01 8.700963e+00 5.200000e+01
      vertex   3.550000e+01 5.000000e+00 5.200000e+01
    endloop
  endfacet
  facet normal 0.000000e+00 0.000000e+00 1.000000e+00
    outer loop
      vertex   3.550000e+01 5.000000e+00 5.200000e+01
      vertex   -2.925000e+01 8.700963e+00 5.200000e+01
      vertex   -3.550000e+01 5.000000e+00 5.200000e+01
    endloop
  endfacet
  facet normal 0.000000e+00 0.000000e+00 1.000000e+00
    outer loop
      vertex   -3.550000e+01 5.000000e+00 5.200000e+01
      vertex   -2.925000e+01 8.700963e+00 5.200000e+01
      vertex   -2.961177e+01 8.551112e+00 5.200000e+01
    endloop
  endfacet
  facet normal 0.000000e+00 0.000000e+00 1.000000e+00
    outer loop
      vertex   -3.550000e+01 5.000000e+00 5.200000e+01
      vertex   -2.961177e+01 8.551112e+00 5.200000e+01
      vertex   -3.000000e+01 8.500001e+00 5.200000e+01
    endloop
  endfacet
  facet normal 0.000000e+00 0.000000e+00 1.000000e+00
    outer loop
      vertex   -3.000000e+01 8.500001e+00 5.200000e+01
      vertex   -3.038823e+01 8.551112e+00 5.200000e+01
      vertex   -3.550000e+01 5.000000e+00 5.200000e+01
    endloop
  endfacet
  facet normal 0.000000e+00 0.000000e+00 1.000000e+00
    outer loop
      vertex   -3.550000e+01 5.000000e+00 5.200000e+01
      vertex   -3.038823e+01 8.551112e+00 5.200000e+01
      vertex   -3.075000e+01 8.700963e+00 5.200000e+01
    endloop
  endfacet
  facet normal 0.000000e+00 0.000000e+00 1.000000e+00
    outer loop
      vertex   -3.550000e+01 5.000000e+00 5.200000e+01
      vertex   -3.075000e+01 8.700963e+00 5.200000e+01
      vertex   -3.106066e+01 8.939341e+00 5.200000e+01
    endloop
  endfacet
  facet normal 0.000000e+00 0.000000e+00 1.000000e+00
    outer loop
      vertex   -3.106066e+01 8.939341e+00 5.200000e+01
      vertex   -3.129904e+01 9.250001e+00 5.200000e+01
      vertex   -3.550000e+01 5.000000e+00 5.200000e+01
    endloop
  endfacet
  facet normal 0.000000e+00 0.000000e+00 1.000000e+00
    outer loop
      vertex   -3.550000e+01 5.000000e+00 5.200000e+01
      vertex   -3.129904e+01 9.250001e+00 5.200000e+01
      vertex   -3.144889e+01 9.611772e+00 5.200000e+01
    endloop
  endfacet
  facet normal -0.000000e+00 0.000000e+00 1.000000e+00
    outer loop
      vertex   3.000000e+01 1.150000e+01 5.200000e+01
      vertex   3.038823e+01 1.144889e+01 5.200000e+01
      vertex   3.550000e+01 5.500000e+01 5.200000e+01
    endloop
  endfacet
  facet normal 0.000000e+00 0.000000e+00 1.000000e+00
    outer loop
      vertex   3.550000e+01 5.500000e+01 5.200000e+01
      vertex   3.038823e+01 1.144889e+01 5.200000e+01
      vertex   3.075000e+01 1.129904e+01 5.200000e+01
    endloop
  endfacet
  facet normal 0.000000e+00 0.000000e+00 1.000000e+00
    outer loop
      vertex   3.550000e+01 5.500000e+01 5.200000e+01
      vertex   3.075000e+01 1.129904e+01 5.200000e+01
      vertex   3.106066e+01 1.106066e+01 5.200000e+01
    endloop
  endfacet
  facet normal -0.000000e+00 0.000000e+00 1.000000e+00
    outer loop
      vertex   3.106066e+01 1.106066e+01 5.200000e+01
      vertex   3.129904e+01 1.075000e+01 5.200000e+01
      vertex   3.550000e+01 5.500000e+01 5.200000e+01
    endloop
  endfacet
  facet normal 0.000000e+00 0.000000e+00 1.000000e+00
    outer loop
      vertex   3.550000e+01 5.500000e+01 5.200000e+01
      vertex   3.129904e+01 1.075000e+01 5.200000e+01
      vertex   3.550000e+01 5.000000e+00 5.200000e+01
    endloop
  endfacet
  facet normal 0.000000e+00 0.000000e+00 1.000000e+00
    outer loop
      vertex   3.550000e+01 5.000000e+00 5.200000e+01
      vertex   3.129904e+01 1.075000e+01 5.200000e+01
      vertex   3.144889e+01 1.038823e+01 5.200000e+01
    endloop
  endfacet
  facet normal 0.000000e+00 0.000000e+00 1.000000e+00
    outer loop
      vertex   3.550000e+01 5.000000e+00 5.200000e+01
      vertex   3.144889e+01 1.038823e+01 5.200000e+01
      vertex   3.150000e+01 1.000000e+01 5.200000e+01
    endloop
  endfacet
  facet normal 0.000000e+00 0.000000e+00 1.000000e+00
    outer loop
      vertex   3.150000e+01 1.000000e+01 5.200000e+01
      vertex   3.144889e+01 9.611772e+00 5.200000e+01
      vertex   3.550000e+01 5.000000e+00 5.200000e+01
    endloop
  endfacet
  facet normal 0.000000e+00 0.000000e+00 1.000000e+00
    outer loop
      vertex   3.550000e+01 5.000000e+00 5.200000e+01
      vertex   3.144889e+01 9.611772e+00 5.200000e+01
      vertex   3.129904e+01 9.250001e+00 5.200000e+01
    endloop
  endfacet
  facet normal 0.000000e+00 0.000000e+00 1.000000e+00
    outer loop
      vertex   3.550000e+01 5.000000e+00 5.200000e+01
      vertex   3.129904e+01 9.250001e+00 5.200000e+01
      vertex   3.106066e+01 8.939341e+00 5.200000e+01
    endloop
  endfacet
  facet normal 0.000000e+00 0.000000e+00 1.000000e+00
    outer loop
      vertex   3.106066e+01 8.939341e+00 5.200000e+01
      vertex   3.075000e+01 8.700963e+00 5.200000e+01
      vertex   3.550000e+01 5.000000e+00 5.200000e+01
    endloop
  endfacet
  facet normal 0.000000e+00 0.000000e+00 1.000000e+00
    outer loop
      vertex   3.550000e+01 5.000000e+00 5.200000e+01
      vertex   3.075000e+01 8.700963e+00 5.200000e+01
      vertex   3.038823e+01 8.551112e+00 5.200000e+01
    endloop
  endfacet
  facet normal 0.000000e+00 0.000000e+00 1.000000e+00
    outer loop
      vertex   3.550000e+01 5.000000e+00 5.200000e+01
      vertex   3.038823e+01 8.551112e+00 5.200000e+01
      vertex   3.000000e+01 8.500001e+00 5.200000e+01
    endloop
  endfacet
  facet normal 0.000000e+00 0.000000e+00 1.000000e+00
    outer loop
      vertex   3.000000e+01 8.500001e+00 5.200000e+01
      vertex   2.961177e+01 8.551112e+00 5.200000e+01
      vertex   3.550000e+01 5.000000e+00 5.200000e+01
    endloop
  endfacet
  facet normal 0.000000e+00 0.000000e+00 1.000000e+00
    outer loop
      vertex   3.550000e+01 5.000000e+00 5.200000e+01
      vertex   2.961177e+01 8.551112e+00 5.200000e+01
      vertex   2.925000e+01 8.700963e+00 5.200000e+01
    endloop
  endfacet
  facet normal -0.000000e+00 -1.000000e+00 -0.000000e+00
    outer loop
      vertex   3.550000e+01 5.000000e+00 5.200000e+01
      vertex   -3.550000e+01 5.000000e+00 5.200000e+01
      vertex   3.550000e+01 5.000000e+00 5.000000e+01
    endloop
  endfacet
  facet normal 0.000000e+00 -1.000000e+00 0.000000e+00
    outer loop
      vertex   3.550000e+01 5.000000e+00 5.000000e+01
      vertex   -3.550000e+01 5.000000e+00 5.200000e+01
      vertex   -3.550000e+01 5.000000e+00 5.000000e+01
    endloop
  endfacet
  facet normal -1.000000e+00 0.000000e+00 0.000000e+00
    outer loop
      vertex   -3.550000e+01 5.000000e+00 5.000000e+01
      vertex   -3.550000e+01 5.000000e+00 5.200000e+01
      vertex   -3.550000e+01 5.500000e+01 5.000000e+01
    endloop
  endfacet
  facet normal -1.000000e+00 0.000000e+00 0.000000e+00
    outer loop
      vertex   -3.550000e+01 5.500000e+01 5.000000e+01
      vertex   -3.550000e+01 5.000000e+00 5.200000e+01
      vertex   -3.550000e+01 5.500000e+01 5.200000e+01
    endloop
  endfacet
  facet normal 1.000000e+00 -0.000000e+00 0.000000e+00
    outer loop
      vertex   3.550000e+01 5.000000e+00 5.200000e+01
      vertex   3.550000e+01 5.000000e+00 5.000000e+01
      vertex   3.550000e+01 5.500000e+01 5.200000e+01
    endloop
  endfacet
  facet normal 1.000000e+00 0.000000e+00 0.000000e+00
    outer loop
      vertex   3.550000e+01 5.500000e+01 5.200000e+01
      vertex   3.550000e+01 5.000000e+00 5.000000e+01
      vertex   3.550000e+01 5.500000e+01 5.000000e+01
    endloop
  endfacet
  facet normal 0.000000e+00 1.000000e+00 0.000000e+00
    outer loop
      vertex   3.550000e+01 5.500000e+01 5.200000e+01
      vertex   3.550000e+01 5.500000e+01 5.000000e+01
      vertex   -3.550000e+01 5.500000e+01 5.200000e+01
    endloop
  endfacet
  facet normal 0.000000e+00 1.000000e+00 0.000000e+00
    outer loop
      vertex   -3.550000e+01 5.500000e+01 5.200000e+01
      vertex   3.550000e+01 5.500000e+01 5.000000e+01
      vertex   -3.550000e+01 5.500000e+01 5.000000e+01
    endloop
  endfacet
endsolid
