solid ASCII
  facet normal -9.914449e-01 1.305262e-01 6.023945e-07
    outer loop
      vertex   4.094486e+01 -2.893030e+00 5.800000e+01
      vertex   4.094487e+01 -2.893030e+00 6.000000e+01
      vertex   4.099598e+01 -2.504802e+00 5.800000e+01
    endloop
  endfacet
  facet normal -9.914449e-01 1.305262e-01 6.023945e-07
    outer loop
      vertex   4.099598e+01 -2.504802e+00 5.800000e+01
      vertex   4.094487e+01 -2.893030e+00 6.000000e+01
      vertex   4.099598e+01 -2.504802e+00 6.000000e+01
    endloop
  endfacet
  facet normal -9.914449e-01 -1.305262e-01 6.023945e-07
    outer loop
      vertex   4.099598e+01 -2.504802e+00 5.800000e+01
      vertex   4.099598e+01 -2.504802e+00 6.000000e+01
      vertex   4.094486e+01 -2.116573e+00 5.800000e+01
    endloop
  endfacet
  facet normal -9.914449e-01 -1.305262e-01 6.023945e-07
    outer loop
      vertex   4.094486e+01 -2.116573e+00 5.800000e+01
      vertex   4.099598e+01 -2.504802e+00 6.000000e+01
      vertex   4.094487e+01 -2.116573e+00 6.000000e+01
    endloop
  endfacet
  facet normal -9.238795e-01 -3.826834e-01 6.023945e-07
    outer loop
      vertex   4.094486e+01 -2.116573e+00 5.800000e+01
      vertex   4.094487e+01 -2.116573e+00 6.000000e+01
      vertex   4.079501e+01 -1.754802e+00 5.800000e+01
    endloop
  endfacet
  facet normal -9.238795e-01 -3.826834e-01 6.023945e-07
    outer loop
      vertex   4.079501e+01 -1.754802e+00 5.800000e+01
      vertex   4.094487e+01 -2.116573e+00 6.000000e+01
      vertex   4.079502e+01 -1.754801e+00 6.000000e+01
    endloop
  endfacet
  facet normal -7.933533e-01 -6.087614e-01 6.023945e-07
    outer loop
      vertex   4.079501e+01 -1.754802e+00 5.800000e+01
      vertex   4.079502e+01 -1.754801e+00 6.000000e+01
      vertex   4.055664e+01 -1.444141e+00 5.800000e+01
    endloop
  endfacet
  facet normal -7.933533e-01 -6.087614e-01 6.023945e-07
    outer loop
      vertex   4.055664e+01 -1.444141e+00 5.800000e+01
      vertex   4.079502e+01 -1.754801e+00 6.000000e+01
      vertex   4.055664e+01 -1.444141e+00 6.000000e+01
    endloop
  endfacet
  facet normal -6.087614e-01 -7.933533e-01 6.023945e-07
    outer loop
      vertex   4.055664e+01 -1.444141e+00 5.800000e+01
      vertex   4.055664e+01 -1.444141e+00 6.000000e+01
      vertex   4.024598e+01 -1.205764e+00 5.800000e+01
    endloop
  endfacet
  facet normal -6.087614e-01 -7.933533e-01 6.023945e-07
    outer loop
      vertex   4.024598e+01 -1.205764e+00 5.800000e+01
      vertex   4.055664e+01 -1.444141e+00 6.000000e+01
      vertex   4.024598e+01 -1.205762e+00 6.000000e+01
    endloop
  endfacet
  facet normal -3.826834e-01 -9.238795e-01 6.023945e-07
    outer loop
      vertex   4.024598e+01 -1.205764e+00 5.800000e+01
      vertex   4.024598e+01 -1.205762e+00 6.000000e+01
      vertex   3.988420e+01 -1.055913e+00 5.800000e+01
    endloop
  endfacet
  facet normal -3.826834e-01 -9.238795e-01 6.023945e-07
    outer loop
      vertex   3.988420e+01 -1.055913e+00 5.800000e+01
      vertex   4.024598e+01 -1.205762e+00 6.000000e+01
      vertex   3.988420e+01 -1.055912e+00 6.000000e+01
    endloop
  endfacet
  facet normal -1.305262e-01 -9.914449e-01 6.023945e-07
    outer loop
      vertex   3.988420e+01 -1.055913e+00 5.800000e+01
      vertex   3.988420e+01 -1.055912e+00 6.000000e+01
      vertex   3.949598e+01 -1.004802e+00 5.800000e+01
    endloop
  endfacet
  facet normal -1.305262e-01 -9.914449e-01 6.023945e-07
    outer loop
      vertex   3.949598e+01 -1.004802e+00 5.800000e+01
      vertex   3.988420e+01 -1.055912e+00 6.000000e+01
      vertex   3.949598e+01 -1.004800e+00 6.000000e+01
    endloop
  endfacet
  facet normal 1.305262e-01 -9.914449e-01 6.023945e-07
    outer loop
      vertex   3.949598e+01 -1.004802e+00 5.800000e+01
      vertex   3.949598e+01 -1.004800e+00 6.000000e+01
      vertex   3.910775e+01 -1.055913e+00 5.800000e+01
    endloop
  endfacet
  facet normal 1.305262e-01 -9.914449e-01 6.023945e-07
    outer loop
      vertex   3.910775e+01 -1.055913e+00 5.800000e+01
      vertex   3.949598e+01 -1.004800e+00 6.000000e+01
      vertex   3.910775e+01 -1.055912e+00 6.000000e+01
    endloop
  endfacet
  facet normal 3.826834e-01 -9.238795e-01 6.023945e-07
    outer loop
      vertex   3.910775e+01 -1.055913e+00 5.800000e+01
      vertex   3.910775e+01 -1.055912e+00 6.000000e+01
      vertex   3.874598e+01 -1.205764e+00 5.800000e+01
    endloop
  endfacet
  facet normal 3.826834e-01 -9.238795e-01 6.023945e-07
    outer loop
      vertex   3.874598e+01 -1.205764e+00 5.800000e+01
      vertex   3.910775e+01 -1.055912e+00 6.000000e+01
      vertex   3.874598e+01 -1.205762e+00 6.000000e+01
    endloop
  endfacet
  facet normal 6.087614e-01 -7.933533e-01 6.023945e-07
    outer loop
      vertex   3.874598e+01 -1.205764e+00 5.800000e+01
      vertex   3.874598e+01 -1.205762e+00 6.000000e+01
      vertex   3.843532e+01 -1.444141e+00 5.800000e+01
    endloop
  endfacet
  facet normal 6.087614e-01 -7.933533e-01 6.023945e-07
    outer loop
      vertex   3.843532e+01 -1.444141e+00 5.800000e+01
      vertex   3.874598e+01 -1.205762e+00 6.000000e+01
      vertex   3.843532e+01 -1.444141e+00 6.000000e+01
    endloop
  endfacet
  facet normal 7.933533e-01 -6.087614e-01 6.023945e-07
    outer loop
      vertex   3.843532e+01 -1.444141e+00 5.800000e+01
      vertex   3.843532e+01 -1.444141e+00 6.000000e+01
      vertex   3.819694e+01 -1.754802e+00 5.800000e+01
    endloop
  endfacet
  facet normal 7.933533e-01 -6.087614e-01 6.023945e-07
    outer loop
      vertex   3.819694e+01 -1.754802e+00 5.800000e+01
      vertex   3.843532e+01 -1.444141e+00 6.000000e+01
      vertex   3.819694e+01 -1.754801e+00 6.000000e+01
    endloop
  endfacet
  facet normal 9.238795e-01 -3.826834e-01 6.023945e-07
    outer loop
      vertex   3.819694e+01 -1.754802e+00 5.800000e+01
      vertex   3.819694e+01 -1.754801e+00 6.000000e+01
      vertex   3.804709e+01 -2.116573e+00 5.800000e+01
    endloop
  endfacet
  facet normal 9.238795e-01 -3.826834e-01 6.023945e-07
    outer loop
      vertex   3.804709e+01 -2.116573e+00 5.800000e+01
      vertex   3.819694e+01 -1.754801e+00 6.000000e+01
      vertex   3.804709e+01 -2.116573e+00 6.000000e+01
    endloop
  endfacet
  facet normal 9.914449e-01 -1.305262e-01 6.023945e-07
    outer loop
      vertex   3.804709e+01 -2.116573e+00 5.800000e+01
      vertex   3.804709e+01 -2.116573e+00 6.000000e+01
      vertex   3.799598e+01 -2.504802e+00 5.800000e+01
    endloop
  endfacet
  facet normal 9.914453e-01 -1.305231e-01 -3.522320e-15
    outer loop
      vertex   3.799598e+01 -2.504802e+00 5.800000e+01
      vertex   3.804709e+01 -2.116573e+00 6.000000e+01
      vertex   3.799598e+01 -2.504802e+00 6.000000e+01
    endloop
  endfacet
  facet normal 9.914453e-01 1.305231e-01 -3.522320e-15
    outer loop
      vertex   3.799598e+01 -2.504802e+00 5.800000e+01
      vertex   3.799598e+01 -2.504802e+00 6.000000e+01
      vertex   3.804709e+01 -2.893030e+00 6.000000e+01
    endloop
  endfacet
  facet normal -9.238795e-01 3.826834e-01 6.023945e-07
    outer loop
      vertex   4.094487e+01 -2.893030e+00 6.000000e+01
      vertex   4.094486e+01 -2.893030e+00 5.800000e+01
      vertex   4.079502e+01 -3.254802e+00 6.000000e+01
    endloop
  endfacet
  facet normal -9.238795e-01 3.826834e-01 6.023945e-07
    outer loop
      vertex   4.079502e+01 -3.254802e+00 6.000000e+01
      vertex   4.094486e+01 -2.893030e+00 5.800000e+01
      vertex   4.079501e+01 -3.254802e+00 5.800000e+01
    endloop
  endfacet
  facet normal -7.933533e-01 6.087614e-01 6.023945e-07
    outer loop
      vertex   4.079502e+01 -3.254802e+00 6.000000e+01
      vertex   4.079501e+01 -3.254802e+00 5.800000e+01
      vertex   4.055664e+01 -3.565463e+00 6.000000e+01
    endloop
  endfacet
  facet normal -7.933533e-01 6.087614e-01 6.023945e-07
    outer loop
      vertex   4.055664e+01 -3.565463e+00 6.000000e+01
      vertex   4.079501e+01 -3.254802e+00 5.800000e+01
      vertex   4.055664e+01 -3.565462e+00 5.800000e+01
    endloop
  endfacet
  facet normal -6.087614e-01 7.933533e-01 6.023945e-07
    outer loop
      vertex   4.055664e+01 -3.565463e+00 6.000000e+01
      vertex   4.055664e+01 -3.565462e+00 5.800000e+01
      vertex   4.024598e+01 -3.803841e+00 6.000000e+01
    endloop
  endfacet
  facet normal -6.087614e-01 7.933533e-01 6.023945e-07
    outer loop
      vertex   4.024598e+01 -3.803841e+00 6.000000e+01
      vertex   4.055664e+01 -3.565462e+00 5.800000e+01
      vertex   4.024598e+01 -3.803840e+00 5.800000e+01
    endloop
  endfacet
  facet normal -3.826834e-01 9.238795e-01 6.023945e-07
    outer loop
      vertex   4.024598e+01 -3.803841e+00 6.000000e+01
      vertex   4.024598e+01 -3.803840e+00 5.800000e+01
      vertex   3.988420e+01 -3.953692e+00 6.000000e+01
    endloop
  endfacet
  facet normal -3.826834e-01 9.238795e-01 6.023945e-07
    outer loop
      vertex   3.988420e+01 -3.953692e+00 6.000000e+01
      vertex   4.024598e+01 -3.803840e+00 5.800000e+01
      vertex   3.988420e+01 -3.953690e+00 5.800000e+01
    endloop
  endfacet
  facet normal -1.305262e-01 9.914449e-01 6.023945e-07
    outer loop
      vertex   3.988420e+01 -3.953692e+00 6.000000e+01
      vertex   3.988420e+01 -3.953690e+00 5.800000e+01
      vertex   3.949598e+01 -4.004803e+00 6.000000e+01
    endloop
  endfacet
  facet normal -1.305262e-01 9.914449e-01 6.023945e-07
    outer loop
      vertex   3.949598e+01 -4.004803e+00 6.000000e+01
      vertex   3.988420e+01 -3.953690e+00 5.800000e+01
      vertex   3.949598e+01 -4.004802e+00 5.800000e+01
    endloop
  endfacet
  facet normal 1.305262e-01 9.914449e-01 6.023945e-07
    outer loop
      vertex   3.949598e+01 -4.004803e+00 6.000000e+01
      vertex   3.949598e+01 -4.004802e+00 5.800000e+01
      vertex   3.910775e+01 -3.953692e+00 6.000000e+01
    endloop
  endfacet
  facet normal 1.305262e-01 9.914449e-01 6.023945e-07
    outer loop
      vertex   3.910775e+01 -3.953692e+00 6.000000e+01
      vertex   3.949598e+01 -4.004802e+00 5.800000e+01
      vertex   3.910775e+01 -3.953690e+00 5.800000e+01
    endloop
  endfacet
  facet normal 3.826834e-01 9.238795e-01 6.023945e-07
    outer loop
      vertex   3.910775e+01 -3.953692e+00 6.000000e+01
      vertex   3.910775e+01 -3.953690e+00 5.800000e+01
      vertex   3.874598e+01 -3.803841e+00 6.000000e+01
    endloop
  endfacet
  facet normal 3.826834e-01 9.238795e-01 6.023945e-07
    outer loop
      vertex   3.874598e+01 -3.803841e+00 6.000000e+01
      vertex   3.910775e+01 -3.953690e+00 5.800000e+01
      vertex   3.874598e+01 -3.803840e+00 5.800000e+01
    endloop
  endfacet
  facet normal 6.087614e-01 7.933533e-01 6.023945e-07
    outer loop
      vertex   3.874598e+01 -3.803841e+00 6.000000e+01
      vertex   3.874598e+01 -3.803840e+00 5.800000e+01
      vertex   3.843532e+01 -3.565463e+00 6.000000e+01
    endloop
  endfacet
  facet normal 6.087614e-01 7.933533e-01 6.023945e-07
    outer loop
      vertex   3.843532e+01 -3.565463e+00 6.000000e+01
      vertex   3.874598e+01 -3.803840e+00 5.800000e+01
      vertex   3.843532e+01 -3.565462e+00 5.800000e+01
    endloop
  endfacet
  facet normal 7.933533e-01 6.087614e-01 6.023945e-07
    outer loop
      vertex   3.843532e+01 -3.565463e+00 6.000000e+01
      vertex   3.843532e+01 -3.565462e+00 5.800000e+01
      vertex   3.819694e+01 -3.254802e+00 6.000000e+01
    endloop
  endfacet
  facet normal 7.933533e-01 6.087614e-01 6.023945e-07
    outer loop
      vertex   3.819694e+01 -3.254802e+00 6.000000e+01
      vertex   3.843532e+01 -3.565462e+00 5.800000e+01
      vertex   3.819694e+01 -3.254802e+00 5.800000e+01
    endloop
  endfacet
  facet normal 9.238795e-01 3.826834e-01 6.023945e-07
    outer loop
      vertex   3.819694e+01 -3.254802e+00 6.000000e+01
      vertex   3.819694e+01 -3.254802e+00 5.800000e+01
      vertex   3.804709e+01 -2.893030e+00 6.000000e+01
    endloop
  endfacet
  facet normal 9.238795e-01 3.826834e-01 6.023945e-07
    outer loop
      vertex   3.804709e+01 -2.893030e+00 6.000000e+01
      vertex   3.819694e+01 -3.254802e+00 5.800000e+01
      vertex   3.804709e+01 -2.893030e+00 5.800000e+01
    endloop
  endfacet
  facet normal 9.914449e-01 1.305262e-01 6.023945e-07
    outer loop
      vertex   3.804709e+01 -2.893030e+00 6.000000e+01
      vertex   3.804709e+01 -2.893030e+00 5.800000e+01
      vertex   3.799598e+01 -2.504802e+00 5.800000e+01
    endloop
  endfacet
  facet normal -9.914449e-01 1.305262e-01 6.023945e-07
    outer loop
      vertex   -3.813561e+01 -2.928194e+00 5.800000e+01
      vertex   -3.813561e+01 -2.928194e+00 6.000000e+01
      vertex   -3.808450e+01 -2.539965e+00 5.800000e+01
    endloop
  endfacet
  facet normal -9.914449e-01 1.305262e-01 6.023945e-07
    outer loop
      vertex   -3.808450e+01 -2.539965e+00 5.800000e+01
      vertex   -3.813561e+01 -2.928194e+00 6.000000e+01
      vertex   -3.808450e+01 -2.539965e+00 6.000000e+01
    endloop
  endfacet
  facet normal -9.914449e-01 -1.305262e-01 6.023945e-07
    outer loop
      vertex   -3.808450e+01 -2.539965e+00 5.800000e+01
      vertex   -3.808450e+01 -2.539965e+00 6.000000e+01
      vertex   -3.813561e+01 -2.151737e+00 5.800000e+01
    endloop
  endfacet
  facet normal -9.914449e-01 -1.305262e-01 6.023945e-07
    outer loop
      vertex   -3.813561e+01 -2.151737e+00 5.800000e+01
      vertex   -3.808450e+01 -2.539965e+00 6.000000e+01
      vertex   -3.813561e+01 -2.151737e+00 6.000000e+01
    endloop
  endfacet
  facet normal -9.238795e-01 -3.826834e-01 6.023945e-07
    outer loop
      vertex   -3.813561e+01 -2.151737e+00 5.800000e+01
      vertex   -3.813561e+01 -2.151737e+00 6.000000e+01
      vertex   -3.828546e+01 -1.789965e+00 5.800000e+01
    endloop
  endfacet
  facet normal -9.238795e-01 -3.826834e-01 6.023945e-07
    outer loop
      vertex   -3.828546e+01 -1.789965e+00 5.800000e+01
      vertex   -3.813561e+01 -2.151737e+00 6.000000e+01
      vertex   -3.828546e+01 -1.789965e+00 6.000000e+01
    endloop
  endfacet
  facet normal -7.933533e-01 -6.087614e-01 6.023945e-07
    outer loop
      vertex   -3.828546e+01 -1.789965e+00 5.800000e+01
      vertex   -3.828546e+01 -1.789965e+00 6.000000e+01
      vertex   -3.852384e+01 -1.479305e+00 5.800000e+01
    endloop
  endfacet
  facet normal -7.933533e-01 -6.087614e-01 6.023945e-07
    outer loop
      vertex   -3.852384e+01 -1.479305e+00 5.800000e+01
      vertex   -3.828546e+01 -1.789965e+00 6.000000e+01
      vertex   -3.852384e+01 -1.479304e+00 6.000000e+01
    endloop
  endfacet
  facet normal -6.087614e-01 -7.933533e-01 6.023945e-07
    outer loop
      vertex   -3.852384e+01 -1.479305e+00 5.800000e+01
      vertex   -3.852384e+01 -1.479304e+00 6.000000e+01
      vertex   -3.883450e+01 -1.240927e+00 5.800000e+01
    endloop
  endfacet
  facet normal -6.087614e-01 -7.933533e-01 6.023945e-07
    outer loop
      vertex   -3.883450e+01 -1.240927e+00 5.800000e+01
      vertex   -3.852384e+01 -1.479304e+00 6.000000e+01
      vertex   -3.883450e+01 -1.240926e+00 6.000000e+01
    endloop
  endfacet
  facet normal -3.826834e-01 -9.238795e-01 6.023945e-07
    outer loop
      vertex   -3.883450e+01 -1.240927e+00 5.800000e+01
      vertex   -3.883450e+01 -1.240926e+00 6.000000e+01
      vertex   -3.919627e+01 -1.091077e+00 5.800000e+01
    endloop
  endfacet
  facet normal -3.826834e-01 -9.238795e-01 6.023945e-07
    outer loop
      vertex   -3.919627e+01 -1.091077e+00 5.800000e+01
      vertex   -3.883450e+01 -1.240926e+00 6.000000e+01
      vertex   -3.919627e+01 -1.091076e+00 6.000000e+01
    endloop
  endfacet
  facet normal -1.305262e-01 -9.914449e-01 6.023945e-07
    outer loop
      vertex   -3.919627e+01 -1.091077e+00 5.800000e+01
      vertex   -3.919627e+01 -1.091076e+00 6.000000e+01
      vertex   -3.958450e+01 -1.039965e+00 5.800000e+01
    endloop
  endfacet
  facet normal -1.305262e-01 -9.914449e-01 6.023945e-07
    outer loop
      vertex   -3.958450e+01 -1.039965e+00 5.800000e+01
      vertex   -3.919627e+01 -1.091076e+00 6.000000e+01
      vertex   -3.958450e+01 -1.039964e+00 6.000000e+01
    endloop
  endfacet
  facet normal 1.305262e-01 -9.914449e-01 6.023945e-07
    outer loop
      vertex   -3.958450e+01 -1.039965e+00 5.800000e+01
      vertex   -3.958450e+01 -1.039964e+00 6.000000e+01
      vertex   -3.997273e+01 -1.091077e+00 5.800000e+01
    endloop
  endfacet
  facet normal 1.305262e-01 -9.914449e-01 6.023945e-07
    outer loop
      vertex   -3.997273e+01 -1.091077e+00 5.800000e+01
      vertex   -3.958450e+01 -1.039964e+00 6.000000e+01
      vertex   -3.997273e+01 -1.091076e+00 6.000000e+01
    endloop
  endfacet
  facet normal 3.826834e-01 -9.238795e-01 6.023945e-07
    outer loop
      vertex   -3.997273e+01 -1.091077e+00 5.800000e+01
      vertex   -3.997273e+01 -1.091076e+00 6.000000e+01
      vertex   -4.033450e+01 -1.240927e+00 5.800000e+01
    endloop
  endfacet
  facet normal 3.826834e-01 -9.238795e-01 6.023945e-07
    outer loop
      vertex   -4.033450e+01 -1.240927e+00 5.800000e+01
      vertex   -3.997273e+01 -1.091076e+00 6.000000e+01
      vertex   -4.033450e+01 -1.240926e+00 6.000000e+01
    endloop
  endfacet
  facet normal 6.087614e-01 -7.933533e-01 6.023945e-07
    outer loop
      vertex   -4.033450e+01 -1.240927e+00 5.800000e+01
      vertex   -4.033450e+01 -1.240926e+00 6.000000e+01
      vertex   -4.064516e+01 -1.479305e+00 5.800000e+01
    endloop
  endfacet
  facet normal 6.087614e-01 -7.933533e-01 6.023945e-07
    outer loop
      vertex   -4.064516e+01 -1.479305e+00 5.800000e+01
      vertex   -4.033450e+01 -1.240926e+00 6.000000e+01
      vertex   -4.064516e+01 -1.479304e+00 6.000000e+01
    endloop
  endfacet
  facet normal 7.933533e-01 -6.087614e-01 6.023945e-07
    outer loop
      vertex   -4.064516e+01 -1.479305e+00 5.800000e+01
      vertex   -4.064516e+01 -1.479304e+00 6.000000e+01
      vertex   -4.088354e+01 -1.789965e+00 5.800000e+01
    endloop
  endfacet
  facet normal 7.933533e-01 -6.087614e-01 6.023945e-07
    outer loop
      vertex   -4.088354e+01 -1.789965e+00 5.800000e+01
      vertex   -4.064516e+01 -1.479304e+00 6.000000e+01
      vertex   -4.088354e+01 -1.789965e+00 6.000000e+01
    endloop
  endfacet
  facet normal 9.238795e-01 -3.826834e-01 6.023945e-07
    outer loop
      vertex   -4.088354e+01 -1.789965e+00 5.800000e+01
      vertex   -4.088354e+01 -1.789965e+00 6.000000e+01
      vertex   -4.103339e+01 -2.151737e+00 5.800000e+01
    endloop
  endfacet
  facet normal 9.238795e-01 -3.826834e-01 6.023945e-07
    outer loop
      vertex   -4.103339e+01 -2.151737e+00 5.800000e+01
      vertex   -4.088354e+01 -1.789965e+00 6.000000e+01
      vertex   -4.103339e+01 -2.151737e+00 6.000000e+01
    endloop
  endfacet
  facet normal 9.914449e-01 -1.305262e-01 6.023945e-07
    outer loop
      vertex   -4.103339e+01 -2.151737e+00 5.800000e+01
      vertex   -4.103339e+01 -2.151737e+00 6.000000e+01
      vertex   -4.108450e+01 -2.539965e+00 5.800000e+01
    endloop
  endfacet
  facet normal 9.914453e-01 -1.305231e-01 0.000000e+00
    outer loop
      vertex   -4.108450e+01 -2.539965e+00 5.800000e+01
      vertex   -4.103339e+01 -2.151737e+00 6.000000e+01
      vertex   -4.108450e+01 -2.539965e+00 6.000000e+01
    endloop
  endfacet
  facet normal 9.914453e-01 1.305231e-01 -0.000000e+00
    outer loop
      vertex   -4.108450e+01 -2.539965e+00 5.800000e+01
      vertex   -4.108450e+01 -2.539965e+00 6.000000e+01
      vertex   -4.103339e+01 -2.928194e+00 6.000000e+01
    endloop
  endfacet
  facet normal -9.238795e-01 3.826834e-01 6.023945e-07
    outer loop
      vertex   -3.813561e+01 -2.928194e+00 6.000000e+01
      vertex   -3.813561e+01 -2.928194e+00 5.800000e+01
      vertex   -3.828546e+01 -3.289966e+00 6.000000e+01
    endloop
  endfacet
  facet normal -9.238795e-01 3.826834e-01 6.023945e-07
    outer loop
      vertex   -3.828546e+01 -3.289966e+00 6.000000e+01
      vertex   -3.813561e+01 -2.928194e+00 5.800000e+01
      vertex   -3.828546e+01 -3.289965e+00 5.800000e+01
    endloop
  endfacet
  facet normal -7.933533e-01 6.087614e-01 6.023945e-07
    outer loop
      vertex   -3.828546e+01 -3.289966e+00 6.000000e+01
      vertex   -3.828546e+01 -3.289965e+00 5.800000e+01
      vertex   -3.852384e+01 -3.600627e+00 6.000000e+01
    endloop
  endfacet
  facet normal -7.933533e-01 6.087614e-01 6.023945e-07
    outer loop
      vertex   -3.852384e+01 -3.600627e+00 6.000000e+01
      vertex   -3.828546e+01 -3.289965e+00 5.800000e+01
      vertex   -3.852384e+01 -3.600626e+00 5.800000e+01
    endloop
  endfacet
  facet normal -6.087614e-01 7.933533e-01 6.023945e-07
    outer loop
      vertex   -3.852384e+01 -3.600627e+00 6.000000e+01
      vertex   -3.852384e+01 -3.600626e+00 5.800000e+01
      vertex   -3.883450e+01 -3.839005e+00 6.000000e+01
    endloop
  endfacet
  facet normal -6.087614e-01 7.933533e-01 6.023945e-07
    outer loop
      vertex   -3.883450e+01 -3.839005e+00 6.000000e+01
      vertex   -3.852384e+01 -3.600626e+00 5.800000e+01
      vertex   -3.883450e+01 -3.839004e+00 5.800000e+01
    endloop
  endfacet
  facet normal -3.826834e-01 9.238795e-01 6.023945e-07
    outer loop
      vertex   -3.883450e+01 -3.839005e+00 6.000000e+01
      vertex   -3.883450e+01 -3.839004e+00 5.800000e+01
      vertex   -3.919627e+01 -3.988855e+00 6.000000e+01
    endloop
  endfacet
  facet normal -3.826834e-01 9.238795e-01 6.023945e-07
    outer loop
      vertex   -3.919627e+01 -3.988855e+00 6.000000e+01
      vertex   -3.883450e+01 -3.839004e+00 5.800000e+01
      vertex   -3.919627e+01 -3.988854e+00 5.800000e+01
    endloop
  endfacet
  facet normal -1.305262e-01 9.914449e-01 6.023945e-07
    outer loop
      vertex   -3.919627e+01 -3.988855e+00 6.000000e+01
      vertex   -3.919627e+01 -3.988854e+00 5.800000e+01
      vertex   -3.958450e+01 -4.039967e+00 6.000000e+01
    endloop
  endfacet
  facet normal -1.305262e-01 9.914449e-01 6.023945e-07
    outer loop
      vertex   -3.958450e+01 -4.039967e+00 6.000000e+01
      vertex   -3.919627e+01 -3.988854e+00 5.800000e+01
      vertex   -3.958450e+01 -4.039965e+00 5.800000e+01
    endloop
  endfacet
  facet normal 1.305262e-01 9.914449e-01 6.023945e-07
    outer loop
      vertex   -3.958450e+01 -4.039967e+00 6.000000e+01
      vertex   -3.958450e+01 -4.039965e+00 5.800000e+01
      vertex   -3.997273e+01 -3.988855e+00 6.000000e+01
    endloop
  endfacet
  facet normal 1.305262e-01 9.914449e-01 6.023945e-07
    outer loop
      vertex   -3.997273e+01 -3.988855e+00 6.000000e+01
      vertex   -3.958450e+01 -4.039965e+00 5.800000e+01
      vertex   -3.997273e+01 -3.988854e+00 5.800000e+01
    endloop
  endfacet
  facet normal 3.826834e-01 9.238795e-01 6.023945e-07
    outer loop
      vertex   -3.997273e+01 -3.988855e+00 6.000000e+01
      vertex   -3.997273e+01 -3.988854e+00 5.800000e+01
      vertex   -4.033450e+01 -3.839005e+00 6.000000e+01
    endloop
  endfacet
  facet normal 3.826834e-01 9.238795e-01 6.023945e-07
    outer loop
      vertex   -4.033450e+01 -3.839005e+00 6.000000e+01
      vertex   -3.997273e+01 -3.988854e+00 5.800000e+01
      vertex   -4.033450e+01 -3.839004e+00 5.800000e+01
    endloop
  endfacet
  facet normal 6.087614e-01 7.933533e-01 6.023945e-07
    outer loop
      vertex   -4.033450e+01 -3.839005e+00 6.000000e+01
      vertex   -4.033450e+01 -3.839004e+00 5.800000e+01
      vertex   -4.064516e+01 -3.600627e+00 6.000000e+01
    endloop
  endfacet
  facet normal 6.087614e-01 7.933533e-01 6.023945e-07
    outer loop
      vertex   -4.064516e+01 -3.600627e+00 6.000000e+01
      vertex   -4.033450e+01 -3.839004e+00 5.800000e+01
      vertex   -4.064516e+01 -3.600626e+00 5.800000e+01
    endloop
  endfacet
  facet normal 7.933533e-01 6.087614e-01 6.023945e-07
    outer loop
      vertex   -4.064516e+01 -3.600627e+00 6.000000e+01
      vertex   -4.064516e+01 -3.600626e+00 5.800000e+01
      vertex   -4.088354e+01 -3.289966e+00 6.000000e+01
    endloop
  endfacet
  facet normal 7.933533e-01 6.087614e-01 6.023945e-07
    outer loop
      vertex   -4.088354e+01 -3.289966e+00 6.000000e+01
      vertex   -4.064516e+01 -3.600626e+00 5.800000e+01
      vertex   -4.088354e+01 -3.289965e+00 5.800000e+01
    endloop
  endfacet
  facet normal 9.238795e-01 3.826834e-01 6.023945e-07
    outer loop
      vertex   -4.088354e+01 -3.289966e+00 6.000000e+01
      vertex   -4.088354e+01 -3.289965e+00 5.800000e+01
      vertex   -4.103339e+01 -2.928194e+00 6.000000e+01
    endloop
  endfacet
  facet normal 9.238795e-01 3.826834e-01 6.023945e-07
    outer loop
      vertex   -4.103339e+01 -2.928194e+00 6.000000e+01
      vertex   -4.088354e+01 -3.289965e+00 5.800000e+01
      vertex   -4.103339e+01 -2.928194e+00 5.800000e+01
    endloop
  endfacet
  facet normal 9.914449e-01 1.305262e-01 6.023945e-07
    outer loop
      vertex   -4.103339e+01 -2.928194e+00 6.000000e+01
      vertex   -4.103339e+01 -2.928194e+00 5.800000e+01
      vertex   -4.108450e+01 -2.539965e+00 5.800000e+01
    endloop
  endfacet
  facet normal 1.000000e+00 0.000000e+00 0.000000e+00
    outer loop
      vertex   4.500000e+01 -5.745391e+01 5.800000e+01
      vertex   4.500000e+01 5.000000e+00 5.800000e+01
      vertex   4.500000e+01 -5.745391e+01 6.000000e+01
    endloop
  endfacet
  facet normal 1.000000e+00 -0.000000e+00 0.000000e+00
    outer loop
      vertex   4.500000e+01 -5.745391e+01 6.000000e+01
      vertex   4.500000e+01 5.000000e+00 5.800000e+01
      vertex   4.500000e+01 5.000000e+00 6.000000e+01
    endloop
  endfacet
  facet normal -3.011314e-01 -9.535827e-01 0.000000e+00
    outer loop
      vertex   -3.573530e-15 -4.324338e+01 5.800000e+01
      vertex   4.500000e+01 -5.745391e+01 5.800000e+01
      vertex   -3.573530e-15 -4.324338e+01 6.000000e+01
    endloop
  endfacet
  facet normal -3.011314e-01 -9.535827e-01 0.000000e+00
    outer loop
      vertex   -3.573530e-15 -4.324338e+01 6.000000e+01
      vertex   4.500000e+01 -5.745391e+01 5.800000e+01
      vertex   4.500000e+01 -5.745391e+01 6.000000e+01
    endloop
  endfacet
  facet normal 3.011314e-01 -9.535827e-01 0.000000e+00
    outer loop
      vertex   -4.500000e+01 -5.745391e+01 5.800000e+01
      vertex   -3.573530e-15 -4.324338e+01 5.800000e+01
      vertex   -4.500000e+01 -5.745391e+01 6.000000e+01
    endloop
  endfacet
  facet normal 3.011314e-01 -9.535827e-01 0.000000e+00
    outer loop
      vertex   -4.500000e+01 -5.745391e+01 6.000000e+01
      vertex   -3.573530e-15 -4.324338e+01 5.800000e+01
      vertex   -3.573530e-15 -4.324338e+01 6.000000e+01
    endloop
  endfacet
  facet normal -1.000000e+00 0.000000e+00 0.000000e+00
    outer loop
      vertex   -4.500000e+01 5.000000e+00 5.800000e+01
      vertex   -4.500000e+01 -5.745391e+01 5.800000e+01
      vertex   -4.500000e+01 5.000000e+00 6.000000e+01
    endloop
  endfacet
  facet normal -1.000000e+00 -0.000000e+00 0.000000e+00
    outer loop
      vertex   -4.500000e+01 5.000000e+00 6.000000e+01
      vertex   -4.500000e+01 -5.745391e+01 5.800000e+01
      vertex   -4.500000e+01 -5.745391e+01 6.000000e+01
    endloop
  endfacet
  facet normal 0.000000e+00 1.000000e+00 -0.000000e+00
    outer loop
      vertex   4.500000e+01 5.000000e+00 5.800000e+01
      vertex   -4.500000e+01 5.000000e+00 5.800000e+01
      vertex   4.500000e+01 5.000000e+00 6.000000e+01
    endloop
  endfacet
  facet normal 0.000000e+00 1.000000e+00 0.000000e+00
    outer loop
      vertex   4.500000e+01 5.000000e+00 6.000000e+01
      vertex   -4.500000e+01 5.000000e+00 5.800000e+01
      vertex   -4.500000e+01 5.000000e+00 6.000000e+01
    endloop
  endfacet
  facet normal -8.681508e-10 1.880853e-06 1.000000e+00
    outer loop
      vertex   3.804709e+01 -2.116573e+00 6.000000e+01
      vertex   -3.813561e+01 -2.151737e+00 6.000000e+01
      vertex   3.799598e+01 -2.504802e+00 6.000000e+01
    endloop
  endfacet
  facet normal -9.596581e-09 -1.263414e-09 1.000000e+00
    outer loop
      vertex   3.799598e+01 -2.504802e+00 6.000000e+01
      vertex   -3.813561e+01 -2.151737e+00 6.000000e+01
      vertex   -3.808450e+01 -2.539965e+00 6.000000e+01
    endloop
  endfacet
  facet normal -8.727370e-09 -1.881887e-06 1.000000e+00
    outer loop
      vertex   3.799598e+01 -2.504802e+00 6.000000e+01
      vertex   -3.808450e+01 -2.539965e+00 6.000000e+01
      vertex   3.804709e+01 -2.893030e+00 6.000000e+01
    endloop
  endfacet
  facet normal 0.000000e+00 0.000000e+00 1.000000e+00
    outer loop
      vertex   3.804709e+01 -2.893030e+00 6.000000e+01
      vertex   -3.808450e+01 -2.539965e+00 6.000000e+01
      vertex   -3.813561e+01 -2.928194e+00 6.000000e+01
    endloop
  endfacet
  facet normal 0.000000e+00 0.000000e+00 1.000000e+00
    outer loop
      vertex   3.804709e+01 -2.893030e+00 6.000000e+01
      vertex   -3.813561e+01 -2.928194e+00 6.000000e+01
      vertex   3.819694e+01 -3.254802e+00 6.000000e+01
    endloop
  endfacet
  facet normal 0.000000e+00 0.000000e+00 1.000000e+00
    outer loop
      vertex   3.819694e+01 -3.254802e+00 6.000000e+01
      vertex   -3.813561e+01 -2.928194e+00 6.000000e+01
      vertex   -3.828546e+01 -3.289966e+00 6.000000e+01
    endloop
  endfacet
  facet normal 1.634595e-19 -3.555289e-16 1.000000e+00
    outer loop
      vertex   3.819694e+01 -3.254802e+00 6.000000e+01
      vertex   -3.828546e+01 -3.289966e+00 6.000000e+01
      vertex   -3.573530e-15 -4.324338e+01 6.000000e+01
    endloop
  endfacet
  facet normal 2.061253e-16 -1.581655e-16 1.000000e+00
    outer loop
      vertex   -3.573530e-15 -4.324338e+01 6.000000e+01
      vertex   -3.828546e+01 -3.289966e+00 6.000000e+01
      vertex   -3.852384e+01 -3.600627e+00 6.000000e+01
    endloop
  endfacet
  facet normal 1.575705e-16 -2.053499e-16 1.000000e+00
    outer loop
      vertex   -3.573530e-15 -4.324338e+01 6.000000e+01
      vertex   -3.852384e+01 -3.600627e+00 6.000000e+01
      vertex   -3.883450e+01 -3.839005e+00 6.000000e+01
    endloop
  endfacet
  facet normal 0.000000e+00 -0.000000e+00 1.000000e+00
    outer loop
      vertex   -3.813561e+01 -2.151737e+00 6.000000e+01
      vertex   3.804709e+01 -2.116573e+00 6.000000e+01
      vertex   -3.828546e+01 -1.789965e+00 6.000000e+01
    endloop
  endfacet
  facet normal -0.000000e+00 0.000000e+00 1.000000e+00
    outer loop
      vertex   -3.828546e+01 -1.789965e+00 6.000000e+01
      vertex   3.804709e+01 -2.116573e+00 6.000000e+01
      vertex   3.819694e+01 -1.754801e+00 6.000000e+01
    endloop
  endfacet
  facet normal 0.000000e+00 -0.000000e+00 1.000000e+00
    outer loop
      vertex   -3.828546e+01 -1.789965e+00 6.000000e+01
      vertex   3.819694e+01 -1.754801e+00 6.000000e+01
      vertex   -3.852384e+01 -1.479304e+00 6.000000e+01
    endloop
  endfacet
  facet normal -0.000000e+00 0.000000e+00 1.000000e+00
    outer loop
      vertex   -3.852384e+01 -1.479304e+00 6.000000e+01
      vertex   3.819694e+01 -1.754801e+00 6.000000e+01
      vertex   3.843532e+01 -1.444141e+00 6.000000e+01
    endloop
  endfacet
  facet normal -1.001682e-18 2.192267e-15 1.000000e+00
    outer loop
      vertex   -3.852384e+01 -1.479304e+00 6.000000e+01
      vertex   3.843532e+01 -1.444141e+00 6.000000e+01
      vertex   -4.500000e+01 5.000000e+00 6.000000e+01
    endloop
  endfacet
  facet normal -0.000000e+00 2.205236e-15 1.000000e+00
    outer loop
      vertex   -4.500000e+01 5.000000e+00 6.000000e+01
      vertex   3.843532e+01 -1.444141e+00 6.000000e+01
      vertex   4.500000e+01 5.000000e+00 6.000000e+01
    endloop
  endfacet
  facet normal -7.750745e-15 1.010097e-14 1.000000e+00
    outer loop
      vertex   4.500000e+01 5.000000e+00 6.000000e+01
      vertex   3.843532e+01 -1.444141e+00 6.000000e+01
      vertex   3.874598e+01 -1.205762e+00 6.000000e+01
    endloop
  endfacet
  facet normal -1.628189e-15 3.930797e-15 1.000000e+00
    outer loop
      vertex   4.500000e+01 5.000000e+00 6.000000e+01
      vertex   3.874598e+01 -1.205762e+00 6.000000e+01
      vertex   3.910775e+01 -1.055912e+00 6.000000e+01
    endloop
  endfacet
  facet normal -3.543239e-16 2.691357e-15 1.000000e+00
    outer loop
      vertex   3.910775e+01 -1.055912e+00 6.000000e+01
      vertex   3.949598e+01 -1.004800e+00 6.000000e+01
      vertex   4.500000e+01 5.000000e+00 6.000000e+01
    endloop
  endfacet
  facet normal 2.780172e-16 2.111751e-15 1.000000e+00
    outer loop
      vertex   4.500000e+01 5.000000e+00 6.000000e+01
      vertex   3.949598e+01 -1.004800e+00 6.000000e+01
      vertex   3.988420e+01 -1.055912e+00 6.000000e+01
    endloop
  endfacet
  facet normal 7.200451e-16 1.738343e-15 1.000000e+00
    outer loop
      vertex   4.500000e+01 5.000000e+00 6.000000e+01
      vertex   3.988420e+01 -1.055912e+00 6.000000e+01
      vertex   4.024598e+01 -1.205762e+00 6.000000e+01
    endloop
  endfacet
  facet normal 1.106632e-15 1.442191e-15 1.000000e+00
    outer loop
      vertex   4.024598e+01 -1.205762e+00 6.000000e+01
      vertex   4.055664e+01 -1.444141e+00 6.000000e+01
      vertex   4.500000e+01 5.000000e+00 6.000000e+01
    endloop
  endfacet
  facet normal 1.513705e-15 1.161507e-15 1.000000e+00
    outer loop
      vertex   4.500000e+01 5.000000e+00 6.000000e+01
      vertex   4.055664e+01 -1.444141e+00 6.000000e+01
      vertex   4.079502e+01 -1.754801e+00 6.000000e+01
    endloop
  endfacet
  facet normal 2.029277e-15 8.405540e-16 1.000000e+00
    outer loop
      vertex   4.500000e+01 5.000000e+00 6.000000e+01
      vertex   4.079502e+01 -1.754801e+00 6.000000e+01
      vertex   4.094487e+01 -2.116573e+00 6.000000e+01
    endloop
  endfacet
  facet normal 2.846698e-15 3.747748e-16 1.000000e+00
    outer loop
      vertex   4.094487e+01 -2.116573e+00 6.000000e+01
      vertex   4.099598e+01 -2.504802e+00 6.000000e+01
      vertex   4.500000e+01 5.000000e+00 6.000000e+01
    endloop
  endfacet
  facet normal 4.711826e-15 -6.203236e-16 1.000000e+00
    outer loop
      vertex   4.500000e+01 5.000000e+00 6.000000e+01
      vertex   4.099598e+01 -2.504802e+00 6.000000e+01
      vertex   4.094487e+01 -2.893030e+00 6.000000e+01
    endloop
  endfacet
  facet normal 1.808608e-14 -7.491500e-15 1.000000e+00
    outer loop
      vertex   4.500000e+01 5.000000e+00 6.000000e+01
      vertex   4.094487e+01 -2.893030e+00 6.000000e+01
      vertex   4.079502e+01 -3.254802e+00 6.000000e+01
    endloop
  endfacet
  facet normal 3.379525e-15 0.000000e+00 1.000000e+00
    outer loop
      vertex   4.500000e+01 5.000000e+00 6.000000e+01
      vertex   4.079502e+01 -3.254802e+00 6.000000e+01
      vertex   4.500000e+01 -5.745391e+01 6.000000e+01
    endloop
  endfacet
  facet normal 3.103252e-16 -2.381209e-16 1.000000e+00
    outer loop
      vertex   4.500000e+01 -5.745391e+01 6.000000e+01
      vertex   4.079502e+01 -3.254802e+00 6.000000e+01
      vertex   4.055664e+01 -3.565463e+00 6.000000e+01
    endloop
  endfacet
  facet normal 1.903100e-16 -2.480168e-16 1.000000e+00
    outer loop
      vertex   4.500000e+01 -5.745391e+01 6.000000e+01
      vertex   4.055664e+01 -3.565463e+00 6.000000e+01
      vertex   4.024598e+01 -3.803841e+00 6.000000e+01
    endloop
  endfacet
  facet normal 1.058326e-16 -2.555024e-16 1.000000e+00
    outer loop
      vertex   4.024598e+01 -3.803841e+00 6.000000e+01
      vertex   3.988420e+01 -3.953692e+00 6.000000e+01
      vertex   4.500000e+01 -5.745391e+01 6.000000e+01
    endloop
  endfacet
  facet normal 3.453509e-17 -2.623201e-16 1.000000e+00
    outer loop
      vertex   4.500000e+01 -5.745391e+01 6.000000e+01
      vertex   3.988420e+01 -3.953692e+00 6.000000e+01
      vertex   3.949598e+01 -4.004803e+00 6.000000e+01
    endloop
  endfacet
  facet normal -8.678306e-17 -2.748130e-16 1.000000e+00
    outer loop
      vertex   4.500000e+01 -5.745391e+01 6.000000e+01
      vertex   3.949598e+01 -4.004803e+00 6.000000e+01
      vertex   -3.573530e-15 -4.324338e+01 6.000000e+01
    endloop
  endfacet
  facet normal -4.210092e-17 -3.197883e-16 1.000000e+00
    outer loop
      vertex   -3.573530e-15 -4.324338e+01 6.000000e+01
      vertex   3.949598e+01 -4.004803e+00 6.000000e+01
      vertex   3.910775e+01 -3.953692e+00 6.000000e+01
    endloop
  endfacet
  facet normal -1.060817e-16 -2.561038e-16 1.000000e+00
    outer loop
      vertex   -3.573530e-15 -4.324338e+01 6.000000e+01
      vertex   3.910775e+01 -3.953692e+00 6.000000e+01
      vertex   3.874598e+01 -3.803841e+00 6.000000e+01
    endloop
  endfacet
  facet normal -1.576451e-16 -2.054471e-16 1.000000e+00
    outer loop
      vertex   3.874598e+01 -3.803841e+00 6.000000e+01
      vertex   3.843532e+01 -3.565463e+00 6.000000e+01
      vertex   -3.573530e-15 -4.324338e+01 6.000000e+01
    endloop
  endfacet
  facet normal -2.063095e-16 -1.583068e-16 1.000000e+00
    outer loop
      vertex   -3.573530e-15 -4.324338e+01 6.000000e+01
      vertex   3.843532e+01 -3.565463e+00 6.000000e+01
      vertex   3.819694e+01 -3.254802e+00 6.000000e+01
    endloop
  endfacet
  facet normal -5.101452e-06 -2.552341e-06 1.000000e+00
    outer loop
      vertex   -4.103339e+01 -2.928194e+00 6.000000e+01
      vertex   -4.108450e+01 -2.539965e+00 6.000000e+01
      vertex   -4.500000e+01 5.000000e+00 6.000000e+01
    endloop
  endfacet
  facet normal 2.740463e-06 1.519958e-06 1.000000e+00
    outer loop
      vertex   -4.500000e+01 5.000000e+00 6.000000e+01
      vertex   -4.108450e+01 -2.539965e+00 6.000000e+01
      vertex   -4.103339e+01 -2.151737e+00 6.000000e+01
    endloop
  endfacet
  facet normal -2.050938e-15 8.495263e-16 1.000000e+00
    outer loop
      vertex   -4.500000e+01 5.000000e+00 6.000000e+01
      vertex   -4.103339e+01 -2.151737e+00 6.000000e+01
      vertex   -4.088354e+01 -1.789965e+00 6.000000e+01
    endloop
  endfacet
  facet normal -1.523694e-15 1.169171e-15 1.000000e+00
    outer loop
      vertex   -4.088354e+01 -1.789965e+00 6.000000e+01
      vertex   -4.064516e+01 -1.479304e+00 6.000000e+01
      vertex   -4.500000e+01 5.000000e+00 6.000000e+01
    endloop
  endfacet
  facet normal -1.110324e-15 1.447003e-15 1.000000e+00
    outer loop
      vertex   -4.500000e+01 5.000000e+00 6.000000e+01
      vertex   -4.064516e+01 -1.479304e+00 6.000000e+01
      vertex   -4.033450e+01 -1.240926e+00 6.000000e+01
    endloop
  endfacet
  facet normal -7.201777e-16 1.738663e-15 1.000000e+00
    outer loop
      vertex   -4.500000e+01 5.000000e+00 6.000000e+01
      vertex   -4.033450e+01 -1.240926e+00 6.000000e+01
      vertex   -3.997273e+01 -1.091076e+00 6.000000e+01
    endloop
  endfacet
  facet normal -2.770494e-16 2.104399e-15 1.000000e+00
    outer loop
      vertex   -3.997273e+01 -1.091076e+00 6.000000e+01
      vertex   -3.958450e+01 -1.039964e+00 6.000000e+01
      vertex   -4.500000e+01 5.000000e+00 6.000000e+01
    endloop
  endfacet
  facet normal 3.512097e-16 2.667703e-15 1.000000e+00
    outer loop
      vertex   -4.500000e+01 5.000000e+00 6.000000e+01
      vertex   -3.958450e+01 -1.039964e+00 6.000000e+01
      vertex   -3.919627e+01 -1.091076e+00 6.000000e+01
    endloop
  endfacet
  facet normal 1.596468e-15 3.854216e-15 1.000000e+00
    outer loop
      vertex   -4.500000e+01 5.000000e+00 6.000000e+01
      vertex   -3.919627e+01 -1.091076e+00 6.000000e+01
      vertex   -3.883450e+01 -1.240926e+00 6.000000e+01
    endloop
  endfacet
  facet normal 7.221566e-15 9.411327e-15 1.000000e+00
    outer loop
      vertex   -3.883450e+01 -1.240926e+00 6.000000e+01
      vertex   -3.852384e+01 -1.479304e+00 6.000000e+01
      vertex   -4.500000e+01 5.000000e+00 6.000000e+01
    endloop
  endfacet
  facet normal 1.060788e-16 -2.560969e-16 1.000000e+00
    outer loop
      vertex   -3.883450e+01 -3.839005e+00 6.000000e+01
      vertex   -3.919627e+01 -3.988855e+00 6.000000e+01
      vertex   -3.573530e-15 -4.324338e+01 6.000000e+01
    endloop
  endfacet
  facet normal 4.212321e-17 -3.199575e-16 1.000000e+00
    outer loop
      vertex   -3.573530e-15 -4.324338e+01 6.000000e+01
      vertex   -3.919627e+01 -3.988855e+00 6.000000e+01
      vertex   -3.958450e+01 -4.039967e+00 6.000000e+01
    endloop
  endfacet
  facet normal 8.679516e-17 -2.748513e-16 1.000000e+00
    outer loop
      vertex   -3.573530e-15 -4.324338e+01 6.000000e+01
      vertex   -3.958450e+01 -4.039967e+00 6.000000e+01
      vertex   -4.500000e+01 -5.745391e+01 6.000000e+01
    endloop
  endfacet
  facet normal -3.456496e-17 -2.625470e-16 1.000000e+00
    outer loop
      vertex   -4.500000e+01 -5.745391e+01 6.000000e+01
      vertex   -3.958450e+01 -4.039967e+00 6.000000e+01
      vertex   -3.997273e+01 -3.988855e+00 6.000000e+01
    endloop
  endfacet
  facet normal -1.059694e-16 -2.558329e-16 1.000000e+00
    outer loop
      vertex   -4.500000e+01 -5.745391e+01 6.000000e+01
      vertex   -3.997273e+01 -3.988855e+00 6.000000e+01
      vertex   -4.033450e+01 -3.839005e+00 6.000000e+01
    endloop
  endfacet
  facet normal -1.906530e-16 -2.484638e-16 1.000000e+00
    outer loop
      vertex   -4.033450e+01 -3.839005e+00 6.000000e+01
      vertex   -4.064516e+01 -3.600627e+00 6.000000e+01
      vertex   -4.500000e+01 -5.745391e+01 6.000000e+01
    endloop
  endfacet
  facet normal -3.111100e-16 -2.387231e-16 1.000000e+00
    outer loop
      vertex   -4.500000e+01 -5.745391e+01 6.000000e+01
      vertex   -4.064516e+01 -3.600627e+00 6.000000e+01
      vertex   -4.088354e+01 -3.289966e+00 6.000000e+01
    endloop
  endfacet
  facet normal -3.452204e-15 0.000000e+00 1.000000e+00
    outer loop
      vertex   -4.500000e+01 -5.745391e+01 6.000000e+01
      vertex   -4.088354e+01 -3.289966e+00 6.000000e+01
      vertex   -4.500000e+01 5.000000e+00 6.000000e+01
    endloop
  endfacet
  facet normal -2.081743e-14 -8.622864e-15 1.000000e+00
    outer loop
      vertex   -4.500000e+01 5.000000e+00 6.000000e+01
      vertex   -4.088354e+01 -3.289966e+00 6.000000e+01
      vertex   -4.103339e+01 -2.928194e+00 6.000000e+01
    endloop
  endfacet
  facet normal -7.067736e-15 9.304851e-16 -1.000000e+00
    outer loop
      vertex   4.094486e+01 -2.893030e+00 5.800000e+01
      vertex   4.099598e+01 -2.504802e+00 5.800000e+01
      vertex   4.500000e+01 5.000000e+00 5.800000e+01
    endloop
  endfacet
  facet normal -4.270045e-15 -5.621621e-16 -1.000000e+00
    outer loop
      vertex   4.500000e+01 5.000000e+00 5.800000e+01
      vertex   4.099598e+01 -2.504802e+00 5.800000e+01
      vertex   4.094486e+01 -2.116573e+00 5.800000e+01
    endloop
  endfacet
  facet normal -3.043915e-15 -1.260831e-15 -1.000000e+00
    outer loop
      vertex   4.500000e+01 5.000000e+00 5.800000e+01
      vertex   4.094486e+01 -2.116573e+00 5.800000e+01
      vertex   4.079501e+01 -1.754802e+00 5.800000e+01
    endloop
  endfacet
  facet normal -2.270557e-15 -1.742260e-15 -1.000000e+00
    outer loop
      vertex   4.079501e+01 -1.754802e+00 5.800000e+01
      vertex   4.055664e+01 -1.444141e+00 5.800000e+01
      vertex   4.500000e+01 5.000000e+00 5.800000e+01
    endloop
  endfacet
  facet normal -1.659948e-15 -2.163287e-15 -1.000000e+00
    outer loop
      vertex   4.500000e+01 5.000000e+00 5.800000e+01
      vertex   4.055664e+01 -1.444141e+00 5.800000e+01
      vertex   4.024598e+01 -1.205764e+00 5.800000e+01
    endloop
  endfacet
  facet normal -1.080068e-15 -2.607514e-15 -1.000000e+00
    outer loop
      vertex   4.500000e+01 5.000000e+00 5.800000e+01
      vertex   4.024598e+01 -1.205764e+00 5.800000e+01
      vertex   3.988420e+01 -1.055913e+00 5.800000e+01
    endloop
  endfacet
  facet normal -4.170258e-16 -3.167625e-15 -1.000000e+00
    outer loop
      vertex   3.988420e+01 -1.055913e+00 5.800000e+01
      vertex   3.949598e+01 -1.004802e+00 5.800000e+01
      vertex   4.500000e+01 5.000000e+00 5.800000e+01
    endloop
  endfacet
  facet normal 5.314857e-16 -4.037034e-15 -1.000000e+00
    outer loop
      vertex   4.500000e+01 5.000000e+00 5.800000e+01
      vertex   3.949598e+01 -1.004802e+00 5.800000e+01
      vertex   3.910775e+01 -1.055913e+00 5.800000e+01
    endloop
  endfacet
  facet normal 2.442283e-15 -5.896193e-15 -1.000000e+00
    outer loop
      vertex   4.500000e+01 5.000000e+00 5.800000e+01
      vertex   3.910775e+01 -1.055913e+00 5.800000e+01
      vertex   3.874598e+01 -1.205764e+00 5.800000e+01
    endloop
  endfacet
  facet normal 1.162611e-14 -1.515144e-14 -1.000000e+00
    outer loop
      vertex   3.874598e+01 -1.205764e+00 5.800000e+01
      vertex   3.843532e+01 -1.444141e+00 5.800000e+01
      vertex   4.500000e+01 5.000000e+00 5.800000e+01
    endloop
  endfacet
  facet normal -0.000000e+00 -3.307854e-15 -1.000000e+00
    outer loop
      vertex   4.500000e+01 5.000000e+00 5.800000e+01
      vertex   3.843532e+01 -1.444141e+00 5.800000e+01
      vertex   -4.500000e+01 5.000000e+00 5.800000e+01
    endloop
  endfacet
  facet normal 1.502523e-18 -3.288400e-15 -1.000000e+00
    outer loop
      vertex   -4.500000e+01 5.000000e+00 5.800000e+01
      vertex   3.843532e+01 -1.444141e+00 5.800000e+01
      vertex   -3.852384e+01 -1.479305e+00 5.800000e+01
    endloop
  endfacet
  facet normal -1.083234e-14 -1.411698e-14 -1.000000e+00
    outer loop
      vertex   -4.500000e+01 5.000000e+00 5.800000e+01
      vertex   -3.852384e+01 -1.479305e+00 5.800000e+01
      vertex   -3.883450e+01 -1.240927e+00 5.800000e+01
    endloop
  endfacet
  facet normal 0.000000e+00 0.000000e+00 -1.000000e+00
    outer loop
      vertex   3.843532e+01 -1.444141e+00 5.800000e+01
      vertex   3.819694e+01 -1.754802e+00 5.800000e+01
      vertex   -3.852384e+01 -1.479305e+00 5.800000e+01
    endloop
  endfacet
  facet normal 0.000000e+00 0.000000e+00 -1.000000e+00
    outer loop
      vertex   -3.852384e+01 -1.479305e+00 5.800000e+01
      vertex   3.819694e+01 -1.754802e+00 5.800000e+01
      vertex   -3.828546e+01 -1.789965e+00 5.800000e+01
    endloop
  endfacet
  facet normal 0.000000e+00 0.000000e+00 -1.000000e+00
    outer loop
      vertex   -3.828546e+01 -1.789965e+00 5.800000e+01
      vertex   3.819694e+01 -1.754802e+00 5.800000e+01
      vertex   3.804709e+01 -2.116573e+00 5.800000e+01
    endloop
  endfacet
  facet normal 0.000000e+00 0.000000e+00 -1.000000e+00
    outer loop
      vertex   -3.828546e+01 -1.789965e+00 5.800000e+01
      vertex   3.804709e+01 -2.116573e+00 5.800000e+01
      vertex   -3.813561e+01 -2.151737e+00 5.800000e+01
    endloop
  endfacet
  facet normal 0.000000e+00 0.000000e+00 -1.000000e+00
    outer loop
      vertex   -3.813561e+01 -2.151737e+00 5.800000e+01
      vertex   3.804709e+01 -2.116573e+00 5.800000e+01
      vertex   3.799598e+01 -2.504802e+00 5.800000e+01
    endloop
  endfacet
  facet normal 0.000000e+00 0.000000e+00 -1.000000e+00
    outer loop
      vertex   -3.813561e+01 -2.151737e+00 5.800000e+01
      vertex   3.799598e+01 -2.504802e+00 5.800000e+01
      vertex   -3.808450e+01 -2.539965e+00 5.800000e+01
    endloop
  endfacet
  facet normal 0.000000e+00 0.000000e+00 -1.000000e+00
    outer loop
      vertex   -3.808450e+01 -2.539965e+00 5.800000e+01
      vertex   3.799598e+01 -2.504802e+00 5.800000e+01
      vertex   3.804709e+01 -2.893030e+00 5.800000e+01
    endloop
  endfacet
  facet normal 0.000000e+00 -0.000000e+00 -1.000000e+00
    outer loop
      vertex   -3.808450e+01 -2.539965e+00 5.800000e+01
      vertex   3.804709e+01 -2.893030e+00 5.800000e+01
      vertex   -3.813561e+01 -2.928194e+00 5.800000e+01
    endloop
  endfacet
  facet normal 0.000000e+00 0.000000e+00 -1.000000e+00
    outer loop
      vertex   -3.813561e+01 -2.928194e+00 5.800000e+01
      vertex   3.804709e+01 -2.893030e+00 5.800000e+01
      vertex   3.819694e+01 -3.254802e+00 5.800000e+01
    endloop
  endfacet
  facet normal 0.000000e+00 -0.000000e+00 -1.000000e+00
    outer loop
      vertex   -3.813561e+01 -2.928194e+00 5.800000e+01
      vertex   3.819694e+01 -3.254802e+00 5.800000e+01
      vertex   -3.828546e+01 -3.289965e+00 5.800000e+01
    endloop
  endfacet
  facet normal -2.451893e-19 5.332934e-16 -1.000000e+00
    outer loop
      vertex   -3.828546e+01 -3.289965e+00 5.800000e+01
      vertex   3.819694e+01 -3.254802e+00 5.800000e+01
      vertex   -3.573530e-15 -4.324338e+01 5.800000e+01
    endloop
  endfacet
  facet normal -3.091879e-16 2.372482e-16 -1.000000e+00
    outer loop
      vertex   -3.828546e+01 -3.289965e+00 5.800000e+01
      vertex   -3.573530e-15 -4.324338e+01 5.800000e+01
      vertex   -3.852384e+01 -3.600626e+00 5.800000e+01
    endloop
  endfacet
  facet normal -2.363557e-16 3.080248e-16 -1.000000e+00
    outer loop
      vertex   -3.852384e+01 -3.600626e+00 5.800000e+01
      vertex   -3.573530e-15 -4.324338e+01 5.800000e+01
      vertex   -3.883450e+01 -3.839004e+00 5.800000e+01
    endloop
  endfacet
  facet normal -1.591182e-16 3.841453e-16 -1.000000e+00
    outer loop
      vertex   -3.883450e+01 -3.839004e+00 5.800000e+01
      vertex   -3.573530e-15 -4.324338e+01 5.800000e+01
      vertex   -3.919627e+01 -3.988854e+00 5.800000e+01
    endloop
  endfacet
  facet normal -6.318481e-17 4.799363e-16 -1.000000e+00
    outer loop
      vertex   -3.919627e+01 -3.988854e+00 5.800000e+01
      vertex   -3.573530e-15 -4.324338e+01 5.800000e+01
      vertex   -3.958450e+01 -4.039965e+00 5.800000e+01
    endloop
  endfacet
  facet normal -1.301927e-16 4.122770e-16 -1.000000e+00
    outer loop
      vertex   -3.958450e+01 -4.039965e+00 5.800000e+01
      vertex   -3.573530e-15 -4.324338e+01 5.800000e+01
      vertex   -4.500000e+01 -5.745391e+01 5.800000e+01
    endloop
  endfacet
  facet normal 5.184744e-17 3.938204e-16 -1.000000e+00
    outer loop
      vertex   -3.958450e+01 -4.039965e+00 5.800000e+01
      vertex   -4.500000e+01 -5.745391e+01 5.800000e+01
      vertex   -3.997273e+01 -3.988854e+00 5.800000e+01
    endloop
  endfacet
  facet normal 1.589542e-16 3.837493e-16 -1.000000e+00
    outer loop
      vertex   -3.997273e+01 -3.988854e+00 5.800000e+01
      vertex   -4.500000e+01 -5.745391e+01 5.800000e+01
      vertex   -4.033450e+01 -3.839004e+00 5.800000e+01
    endloop
  endfacet
  facet normal 2.859795e-16 3.726957e-16 -1.000000e+00
    outer loop
      vertex   -4.033450e+01 -3.839004e+00 5.800000e+01
      vertex   -4.500000e+01 -5.745391e+01 5.800000e+01
      vertex   -4.064516e+01 -3.600626e+00 5.800000e+01
    endloop
  endfacet
  facet normal 4.666649e-16 3.580846e-16 -1.000000e+00
    outer loop
      vertex   -4.064516e+01 -3.600626e+00 5.800000e+01
      vertex   -4.500000e+01 -5.745391e+01 5.800000e+01
      vertex   -4.088354e+01 -3.289965e+00 5.800000e+01
    endloop
  endfacet
  facet normal 5.178305e-15 0.000000e+00 -1.000000e+00
    outer loop
      vertex   -4.088354e+01 -3.289965e+00 5.800000e+01
      vertex   -4.500000e+01 -5.745391e+01 5.800000e+01
      vertex   -4.500000e+01 5.000000e+00 5.800000e+01
    endloop
  endfacet
  facet normal 3.122609e-14 1.293427e-14 -1.000000e+00
    outer loop
      vertex   -4.088354e+01 -3.289965e+00 5.800000e+01
      vertex   -4.500000e+01 5.000000e+00 5.800000e+01
      vertex   -4.103339e+01 -2.928194e+00 5.800000e+01
    endloop
  endfacet
  facet normal 7.292998e-15 9.601413e-16 -1.000000e+00
    outer loop
      vertex   -4.103339e+01 -2.928194e+00 5.800000e+01
      vertex   -4.500000e+01 5.000000e+00 5.800000e+01
      vertex   -4.108450e+01 -2.539965e+00 5.800000e+01
    endloop
  endfacet
  facet normal 4.343035e-15 -5.717714e-16 -1.000000e+00
    outer loop
      vertex   -4.108450e+01 -2.539965e+00 5.800000e+01
      vertex   -4.500000e+01 5.000000e+00 5.800000e+01
      vertex   -4.103339e+01 -2.151737e+00 5.800000e+01
    endloop
  endfacet
  facet normal 3.076406e-15 -1.274289e-15 -1.000000e+00
    outer loop
      vertex   -4.103339e+01 -2.151737e+00 5.800000e+01
      vertex   -4.500000e+01 5.000000e+00 5.800000e+01
      vertex   -4.088354e+01 -1.789965e+00 5.800000e+01
    endloop
  endfacet
  facet normal 2.285540e-15 -1.753757e-15 -1.000000e+00
    outer loop
      vertex   -4.088354e+01 -1.789965e+00 5.800000e+01
      vertex   -4.500000e+01 5.000000e+00 5.800000e+01
      vertex   -4.064516e+01 -1.479305e+00 5.800000e+01
    endloop
  endfacet
  facet normal 1.665486e-15 -2.170504e-15 -1.000000e+00
    outer loop
      vertex   -4.064516e+01 -1.479305e+00 5.800000e+01
      vertex   -4.500000e+01 5.000000e+00 5.800000e+01
      vertex   -4.033450e+01 -1.240927e+00 5.800000e+01
    endloop
  endfacet
  facet normal 1.080266e-15 -2.607994e-15 -1.000000e+00
    outer loop
      vertex   -4.033450e+01 -1.240927e+00 5.800000e+01
      vertex   -4.500000e+01 5.000000e+00 5.800000e+01
      vertex   -3.997273e+01 -1.091077e+00 5.800000e+01
    endloop
  endfacet
  facet normal 4.155740e-16 -3.156598e-15 -1.000000e+00
    outer loop
      vertex   -3.997273e+01 -1.091077e+00 5.800000e+01
      vertex   -4.500000e+01 5.000000e+00 5.800000e+01
      vertex   -3.958450e+01 -1.039965e+00 5.800000e+01
    endloop
  endfacet
  facet normal -5.268145e-16 -4.001553e-15 -1.000000e+00
    outer loop
      vertex   -3.958450e+01 -1.039965e+00 5.800000e+01
      vertex   -4.500000e+01 5.000000e+00 5.800000e+01
      vertex   -3.919627e+01 -1.091077e+00 5.800000e+01
    endloop
  endfacet
  facet normal -2.394702e-15 -5.781322e-15 -1.000000e+00
    outer loop
      vertex   -3.919627e+01 -1.091077e+00 5.800000e+01
      vertex   -4.500000e+01 5.000000e+00 5.800000e+01
      vertex   -3.883450e+01 -1.240927e+00 5.800000e+01
    endloop
  endfacet
  facet normal 3.094642e-16 2.374602e-16 -1.000000e+00
    outer loop
      vertex   3.819694e+01 -3.254802e+00 5.800000e+01
      vertex   3.843532e+01 -3.565462e+00 5.800000e+01
      vertex   -3.573530e-15 -4.324338e+01 5.800000e+01
    endloop
  endfacet
  facet normal 2.364677e-16 3.081707e-16 -1.000000e+00
    outer loop
      vertex   -3.573530e-15 -4.324338e+01 5.800000e+01
      vertex   3.843532e+01 -3.565462e+00 5.800000e+01
      vertex   3.874598e+01 -3.803840e+00 5.800000e+01
    endloop
  endfacet
  facet normal 1.591225e-16 3.841557e-16 -1.000000e+00
    outer loop
      vertex   -3.573530e-15 -4.324338e+01 5.800000e+01
      vertex   3.874598e+01 -3.803840e+00 5.800000e+01
      vertex   3.910775e+01 -3.953690e+00 5.800000e+01
    endloop
  endfacet
  facet normal 6.315138e-17 4.796824e-16 -1.000000e+00
    outer loop
      vertex   3.910775e+01 -3.953690e+00 5.800000e+01
      vertex   3.949598e+01 -4.004802e+00 5.800000e+01
      vertex   -3.573530e-15 -4.324338e+01 5.800000e+01
    endloop
  endfacet
  facet normal 1.301746e-16 4.122195e-16 -1.000000e+00
    outer loop
      vertex   -3.573530e-15 -4.324338e+01 5.800000e+01
      vertex   3.949598e+01 -4.004802e+00 5.800000e+01
      vertex   4.500000e+01 -5.745391e+01 5.800000e+01
    endloop
  endfacet
  facet normal -5.180263e-17 3.934801e-16 -1.000000e+00
    outer loop
      vertex   4.500000e+01 -5.745391e+01 5.800000e+01
      vertex   3.949598e+01 -4.004802e+00 5.800000e+01
      vertex   3.988420e+01 -3.953690e+00 5.800000e+01
    endloop
  endfacet
  facet normal -1.587489e-16 3.832537e-16 -1.000000e+00
    outer loop
      vertex   4.500000e+01 -5.745391e+01 5.800000e+01
      vertex   3.988420e+01 -3.953690e+00 5.800000e+01
      vertex   4.024598e+01 -3.803840e+00 5.800000e+01
    endloop
  endfacet
  facet normal -2.854649e-16 3.720251e-16 -1.000000e+00
    outer loop
      vertex   4.024598e+01 -3.803840e+00 5.800000e+01
      vertex   4.055664e+01 -3.565462e+00 5.800000e+01
      vertex   4.500000e+01 -5.745391e+01 5.800000e+01
    endloop
  endfacet
  facet normal -4.654878e-16 3.571814e-16 -1.000000e+00
    outer loop
      vertex   4.500000e+01 -5.745391e+01 5.800000e+01
      vertex   4.055664e+01 -3.565462e+00 5.800000e+01
      vertex   4.079501e+01 -3.254802e+00 5.800000e+01
    endloop
  endfacet
  facet normal -5.069287e-15 0.000000e+00 -1.000000e+00
    outer loop
      vertex   4.500000e+01 -5.745391e+01 5.800000e+01
      vertex   4.079501e+01 -3.254802e+00 5.800000e+01
      vertex   4.500000e+01 5.000000e+00 5.800000e+01
    endloop
  endfacet
  facet normal -2.712908e-14 1.123723e-14 -1.000000e+00
    outer loop
      vertex   4.500000e+01 5.000000e+00 5.800000e+01
      vertex   4.079501e+01 -3.254802e+00 5.800000e+01
      vertex   4.094486e+01 -2.893030e+00 5.800000e+01
    endloop
  endfacet
endsolid
